SplineFontDB: 3.2
FontName: Ladora
FullName: Ladora
FamilyName: Ladora
Weight: Regular
Copyright: Copyright (c) 2024, Sleanux
UComments: "2024-5-18: Created with FontForge (http://fontforge.org)"
Version: 001.000
ItalicAngle: 0
UnderlinePosition: -100
UnderlineWidth: 50
Ascent: 800
Descent: 200
InvalidEm: 0
LayerCount: 2
Layer: 0 0 "Arri+AOgA-re" 1
Layer: 1 0 "Avant" 0
XUID: [1021 596 1339142916 119]
StyleMap: 0x0000
FSType: 0
OS2Version: 0
OS2_WeightWidthSlopeOnly: 0
OS2_UseTypoMetrics: 1
CreationTime: 1716026250
ModificationTime: 1716213251
OS2TypoAscent: 0
OS2TypoAOffset: 1
OS2TypoDescent: 0
OS2TypoDOffset: 1
OS2TypoLinegap: 90
OS2WinAscent: 0
OS2WinAOffset: 1
OS2WinDescent: 0
OS2WinDOffset: 1
HheadAscent: 0
HheadAOffset: 1
HheadDescent: 0
HheadDOffset: 1
OS2Vendor: 'PfEd'
MarkAttachClasses: 1
DEI: 91125
Encoding: ISO8859-1
UnicodeInterp: none
NameList: AGL For New Fonts
DisplaySize: -48
AntiAlias: 1
FitToEm: 0
WinInfo: 60 20 4
BeginPrivate: 0
EndPrivate
BeginChars: 256 62

StartChar: A
Encoding: 65 65 0
Width: 717
Flags: W
HStem: 0 25<0 47.1153 175.2 206 453 490.692 614.218 661> 182 32<207 458> 615.223 20G<336 374.044>
LayerCount: 2
Fore
SplineSet
366 635.22265625 m 1
 605 41 l 1
 623 34 640 25 661 25 c 1
 661 0 l 1
 621 0 l 1
 592 0 l 1
 453 0 l 1
 453 25 l 1
 523 38 l 1
 462 182 l 1
 199 182 l 1
 140 40 l 1
 206 25 l 1
 206 0 l 1
 109 0 l 1
 67 0 l 1
 56 0 l 1
 0 0 l 1
 0 25 l 1
 30 25 49 42 77 47 c 1
 336 635 l 5
 366 635.22265625 l 1
336 538 m 1
 207 214 l 1
 458 214 l 1
 336 538 l 1
EndSplineSet
Validated: 1
EndChar

StartChar: B
Encoding: 66 66 1
Width: 628
Flags: W
HStem: 0 68<178.263 408.293> 0 20<0 36.3455> 319 47<178 381.822> 568 67.2227<178.353 397.965> 617 18.2227<0 34.4375>
VStem: 98 80<71.4731 319 366 564.99> 438 83<400.415 532.465> 457 86<114.513 254.243>
LayerCount: 2
Fore
SplineSet
0 635.22265625 m 1x6d
 98 635.22265625 l 1x6d
 274 635.22265625 l 1
 280 635.22265625 l 2
 359 635.22265625 419 625 460 601 c 0
 501 577 521 537 521 479 c 0x36
 521 441 511 410 490 385 c 0
 469 361 439 345 400 338 c 1
 400 334 l 1
 427 329 451 321 472 309 c 0
 494 298 512 282 524 261 c 0
 537 240 543 214 543 181 c 0
 543 123 523 79 483 47 c 0
 444 16 390 0 322 0 c 2
 274 0 l 1xb5
 0 0 l 1
 0 20 l 1
 51 27 81 53 98 92 c 1
 98 544 l 1
 81 584 51 610 0 617 c 1
 0 635.22265625 l 1x6d
212 568 m 1x36
 193 566 180 561 178 544 c 1
 178 366 l 1
 296 366 l 2
 350 366 387 374 407 391 c 0
 428 409 438 432.211914062 438 467.211914062 c 0
 438 502.211914062 426 530 401 545 c 0
 377 560 337 568 283 568 c 2
 212 568 l 1x36
178 319 m 1
 178 92 l 5
 180 68 208 68 242 68 c 2
 306 68 l 2
 363 68 402 79 424 101 c 0
 446 123 457 152 457 187 c 0xa5
 457 221 446 247 422 268 c 0
 400 288 359 319 300 319 c 2
 178 319 l 1
EndSplineSet
Validated: 1
EndChar

StartChar: C
Encoding: 67 67 2
Width: 576
Flags: W
HStem: 0 57<215.06 428.152> 585 45<212.597 403.616>
VStem: 1 109<178.705 448.865> 449 36<474 538.188>
LayerCount: 2
Fore
SplineSet
300 0 m 1
 235 0 180 13 136 40 c 0
 91 66 57 103 34 149 c 0
 12 197 1 253 1 316 c 0
 1 378 12 432 36 479 c 0
 60 527 96 564 142 590 c 0
 189 617 247 630 317 630 c 0
 384 630 395 628 430 615 c 0
 436 615 452 641 452 641 c 1
 485 641 l 1
 485 534 l 1
 485 474 l 1
 485 474 473 474 449 474 c 1
 449 492 445 509 438 526 c 0
 430 543 418 557 401 568 c 0
 385 579 344 585 315 585 c 0
 241 585 188 561 156 515 c 0
 125 468 110 402 110 316 c 0
 110 265 117 219 131 180 c 0
 145 141 167 111 197 89 c 0
 227 68 266 57 315 57 c 0
 363 57 400 64 427 78 c 0
 455 93 477 110 493 130 c 1
 509 121 526 112 526 112 c 6
 535 106 504 57 491 48 c 4
 474 36 452 23 419 15 c 0
 388 5 349 0 300 0 c 1
EndSplineSet
Validated: 37
EndChar

StartChar: D
Encoding: 68 68 3
Width: 643
Flags: W
HStem: 0 46<177 355.905> 0 38<0 73.8487> 598 45<177 356.334> 605 38<0 73.4527>
VStem: 86 91<49.0021 593.314> 469 100<179.352 464.799>
LayerCount: 2
Fore
SplineSet
0 0 m 1x4c
 0 38 l 1
 12 38 l 2
 32 38 50 41 64 49 c 0
 78 56 86 74 86 103 c 2
 86 544 l 2
 86 570 78 587 63 594 c 0
 49 602 32 605 12 605 c 2
 0 605 l 1
 0 643 l 1x5c
 276 643 l 2
 368 643 440 615 492 559 c 0
 543 503 569 424 569 322 c 0
 569 256 558 199 536 151 c 0
 514 103 482 66 438 40 c 0
 394 13 340 0 276 0 c 2xac
 0 0 l 1x4c
177 46 m 1xac
 255 46 l 2
 326 46 380 70 415 117 c 0
 451 165 469 234 469 322 c 0
 469 411 451 479 415 527 c 0
 380 574 327 597.972 256 597.972 c 2
 177 598 l 5
 177 46 l 1xac
EndSplineSet
Validated: 1
EndChar

StartChar: E
Encoding: 69 69 4
Width: 555
Flags: W
HStem: 0 45<177 411.385> 0 38<0 74.4824> 314 44<177 399.687> 598 45<177 383.945> 605 38<0 72.8292>
VStem: 86 91<48.6855 314 358 592.998> 412 42<485 566.809> 412 30<238 296.977 375.43 435> 442 47<119 158>
LayerCount: 2
Fore
SplineSet
0 643 m 1x6c80
 454 643 l 1
 454 485 l 1
 412 485 l 1x6e
 407 524 l 1
 407 544 397 561 385 575 c 0
 374 590 355 598 328 598 c 2
 177 598 l 1
 177 358 l 1
 356 358 l 2
 400 358 412 392 412 435 c 1
 442 435 l 1x35
 442 337 l 1
 442 336 l 5x3480
 441 238 l 5
 412 238 l 1
 412 281 400 314 356 314 c 2
 177 314 l 1
 177 45 l 1
 350 45 l 2
 379 45 399 52 412 67 c 0xb5
 425 82 433 99 436 119 c 2
 442 158 l 1
 489 158 l 1
 489 0 l 1
 0 0 l 1
 0 38 l 1
 12 38 l 2
 32 38 49 41 63 48 c 0
 78 55 86 72 86 98 c 2
 86 540 l 2
 86 569 78 586 64 593 c 0
 50 601 32 605 12 605 c 2
 0 605 l 1
 0 643 l 1x6c80
EndSplineSet
Validated: 1
EndChar

StartChar: F
Encoding: 70 70 5
Width: 522
Flags: W
HStem: 0 38<0 74.2703 187.721 279> 293 44<176 392> 596 45<176 382.432> 603 38<0 73.7801>
VStem: 85 91<48.0024 293 337 592.998> 410 47<484 523>
LayerCount: 2
Fore
SplineSet
0 0 m 1xec
 0 38 l 1
 12 38 l 2
 31 38 48 41 63 48 c 0
 78 55 85 72 85 98 c 2
 85 542 l 2
 85 569 78 585 63 593 c 0
 48 600 31 603 12 603 c 2
 0 603 l 1
 0 641 l 1
 453 641 l 5xdc
 457 484 l 5
 410 484 l 1
 406 523 l 2
 403 543 396 560 383 575 c 0
 371 589 351 596 323 596 c 2
 176 596 l 1
 176 337 l 1
 392 337 l 1
 392 293 l 1
 176 293 l 1
 176 102 l 2
 176 74 183 56 198 48 c 0
 212 41 229 38 250 38 c 2
 279 38 l 1
 279 0 l 1
 0 0 l 1xec
EndSplineSet
Validated: 1
EndChar

StartChar: G
Encoding: 71 71 6
Width: 609
Flags: W
HStem: 0 49<203.23 401.713> 258 36<327 390.279 507.518 552> 478 21G<436 479> 590 45.2227<198.46 390>
VStem: 0 96<177.764 454.102> 402 87<54.9048 246.665> 436 43<478 547.369>
LayerCount: 2
Fore
SplineSet
298 0 m 0xfc
 231 0 175 13 131 40 c 0
 87 66 54 103 32 151 c 0
 11 199 0 255 0 319 c 0
 0 381 11 436 34 483 c 0
 57 531 91 568 136 595 c 0
 181 622 237 635.22265625 303 635.22265625 c 0
 340 635.22265625 374 632 405 624 c 4
 423 620 453 655 453 655 c 5
 453 655 470 655 479 655 c 1
 479 528 l 1
 479 478 l 1
 479 478 459 478 436 478 c 1xfa
 436 496 432 513 425 530 c 0
 418 547 405 564 372 577 c 0
 358 583 328 590 300 590 c 0
 226 590 174 566 143 519 c 0
 112 472 96 405 96 319 c 0
 96 232 112 165 145 119 c 0
 177 72 233 49 312 49 c 0
 328 49 345 50 360 52 c 0
 376 54 390 56 402 60 c 1
 402 199 l 2
 402 225 395 241 380 248 c 0
 366 255 350 258 331 258 c 2
 327 258 l 1
 327 294 l 1
 552 294 l 1
 552 258 l 1
 549 258 l 2
 532 258 518 254 507 247 c 0
 495 240 489 223 489 196 c 2
 489 40 l 1
 460 27 433 16 402 10 c 0
 371 3 335 0 298 0 c 0xfc
EndSplineSet
Validated: 33
EndChar

StartChar: H
Encoding: 72 72 7
Width: 682
Flags: W
HStem: 0 37<0 62.3416 186.759 259 379 441.342 564.22 638> 310 44<174 464> 598 37.2227<0 71.9219 186.759 259 379 450.829 565.759 638>
VStem: 85 89<48.3823 310 354 585.95> 464 89<48.3823 310 354 585.998>
LayerCount: 2
Fore
SplineSet
0 0 m 1
 0 37 l 1
 12 37 l 2
 32 37 49 41 63 48 c 0
 77 56 85 74 85 101 c 2
 85 537 l 2
 85 563 77 580 62 587 c 0
 48 594 31 598 12 598 c 2
 0 598 l 1
 0 635.22265625 l 1
 259 635.22265625 l 1
 259 598 l 1
 247 598 l 2
 227 598 210 594 196 586 c 0
 181 579 174 562 174 534 c 2
 174 354 l 1
 464 354 l 1
 464 534 l 2
 464 562 456 579 442 586 c 0
 428 594 411 598 391 598 c 2
 379 598 l 1
 379 635.22265625 l 1
 638 635 l 5
 638 598 l 1
 626 598 l 2
 606 598 589 594 575 586 c 0
 560 579 553 562 553 534 c 2
 553 97 l 2
 553 71 560 54 575 47 c 0
 590 41 607 37 626 37 c 2
 638 37 l 1
 638 0 l 1
 379 0 l 1
 379 37 l 1
 391 37 l 2
 411 37 428 41 442 48 c 0
 456 56 464 74 464 101 c 2
 464 310 l 1
 174 310 l 1
 174 101 l 2
 174 74 181 56 196 48 c 0
 210 41 227 37 247 37 c 2
 259 37 l 1
 259 0 l 1
 0 0 l 1
EndSplineSet
Validated: 1
EndChar

StartChar: I
Encoding: 73 73 8
Width: 300
Flags: W
HStem: 0 37<0 62.3416 186.759 259> 598 37.2227<0 71.8292 186.759 259>
VStem: 85 89<48.3823 585.998>
LayerCount: 2
Fore
SplineSet
0 0 m 1
 0 37 l 1
 12 37 l 2
 32 37 49 41 63 48 c 0
 77 56 85 74 85 101 c 2
 85 534 l 2
 85 562 77 579 63 586 c 0
 49 594 32 598 12 598 c 2
 0 598 l 1
 0 635.22265625 l 1
 259 635 l 5
 259 598 l 1
 247 598 l 2
 227 598 210 594 196 586 c 0
 181 579 174 562 174 534 c 2
 174 101 l 2
 174 74 181 56 196 48 c 0
 210 41 227 37 247 37 c 2
 259 37 l 1
 259 0 l 1
 0 0 l 1
EndSplineSet
Validated: 1
EndChar

StartChar: J
Encoding: 74 74 9
Width: 322
Flags: W
HStem: 0 21G<0 11> 613 28<33 78.5291 201.517 248>
VStem: 0 8<38.625 71> 96 89<68.0833 603.76>
LayerCount: 2
Fore
SplineSet
0 0 m 1
 0 37 l 1
 0 71 l 1
 8 71 l 1
 16 34 l 6
 18 24 41 41 55 48 c 4
 68 55 78 68 85 86 c 0
 92 103 96 128 96 160 c 2
 96 568 l 2
 96 587 90 600 79 605 c 0
 69 610 56 613 41 613 c 2
 33 613 l 1
 33 641 l 1
 248 641 l 1
 248 613 l 1
 240 613 l 2
 225 613 212 610 201 604 c 0
 190 599 185 586 185 565 c 2
 185 160 l 2
 185 120 177 90 164 67 c 0
 151 44 128 35 105 25 c 0
 82 15 40 6 11 6 c 1
 8 0 l 1
 0 0 l 1
EndSplineSet
Validated: 33
EndChar

StartChar: K
Encoding: 75 75 10
Width: 629
Flags: W
HStem: 0 37<0 72.9729 186.759 259> 598 37.2227<0 71.9219 186.759 259 364 406.991 508.089 560>
VStem: 85 89<48.0502 238 283 585.95>
LayerCount: 2
Fore
SplineSet
0 0 m 1
 0 37 l 1
 12 37 l 2
 31 37 48 41 62 47 c 0
 77 54 85 71 85 97 c 2
 85 537 l 2
 85 563 77 580 62 587 c 0
 48 594 31 598 12 598 c 2
 0 598 l 1
 0 635.22265625 l 1
 259 635.22265625 l 1
 259 598 l 1
 247 598 l 2
 227 598 210 594 196 586 c 0
 181 579 174 562 174 534 c 2
 174 283 l 1
 359 494 l 2
 378 516 390 533 397 546 c 0
 404 560 407 571 407 579 c 0
 407 587 404 592 397 594 c 0
 390 597 379 598 364 598 c 1
 364 635.22265625 l 1
 560 635.22265625 l 1
 560 599 l 5
 540 599 521 591 503 576 c 0
 485 561 464 541 441 515 c 2
 312 370 l 1
 500 109 l 2
 517 85 533 68 549 55 c 0
 565 43 570 38 585 31 c 2
 600 23 l 1
 600 0 l 1
 590 0 l 2
 560 0 536 1 516 4 c 0
 497 6 481 10 468 16 c 0
 456 22 444 30 434 40 c 0
 425 51 414 64 403 80 c 2
 250 300 l 1
 174 238 l 1
 174 101 l 2
 174 74 181 56 196 48 c 0
 210 41 227 37 247 37 c 2
 259 37 l 1
 259 0 l 1
 0 0 l 1
EndSplineSet
Validated: 1
EndChar

StartChar: L
Encoding: 76 76 11
Width: 510
Flags: W
HStem: 0 45<171 373.145> 0 22<12 46.2974> 604 31.2227<6 59.7155 192.285 246>
VStem: 81 90<46.0925 588.564>
LayerCount: 2
Fore
SplineSet
6 635.22265625 m 1x70
 81 635.22265625 l 1
 171 635.22265625 l 1
 246 635.22265625 l 1
 246 604 l 1
 184 604 171 567 171 536 c 2
 171 45 l 1
 323 45 l 2xb0
 400 45 409 150 409 150 c 1
 440 150 l 1
 440 0 l 1x70
 171 0 l 1xb0
 81 0 l 1
 0 0 l 1
 -0 22 l 1
 -0 22 13 22 12 22 c 5
 50 23 81 55 81 93 c 2
 81 536 l 2
 81 568 68 604 6 604 c 1
 6 635.22265625 l 1x70
EndSplineSet
Validated: 5
EndChar

StartChar: M
Encoding: 77 77 12
Width: 837
Flags: W
HStem: 0 37<0 75.9729 162.52 213 550 599.435 707.759 783> 598 37.2227<0 74.9219 707.759 783>
VStem: 88 56<48.3823 566.707> 619 76<48.0372 567.875>
LayerCount: 2
Fore
SplineSet
0 0 m 1
 0 37 l 1
 12 37 l 2
 32 37 50 41 65 47 c 0
 80 54 88 71 88 97 c 2
 88 537 l 2
 88 563 80 580 65 587 c 0
 50 594 32 598 12 598 c 2
 0 598 l 1
 0 635.22265625 l 1
 210 635.22265625 l 1
 401 126 l 1
 591 635.22265625 l 1
 783 635.22265625 l 1
 783 598 l 1
 771 598 l 2
 750 598 732 594 717 586 c 0
 702 579 695 562 695 534 c 2
 695 101 l 2
 695 74 702 56 717 48 c 0
 732 41 750 37 771 37 c 2
 783 37 l 1
 783 0 l 1
 550 0 l 1
 550 37 l 1
 553 37 l 2
 573 37 588 41 600 47 c 0
 612 54 618 69 619 93 c 6
 619 568 l 1
 408 0 l 1
 358 0 l 1
 144 567 l 1
 144 101 l 2
 144 74 150 56 162 48 c 0
 173 41 190 37 210 37 c 2
 213 37 l 1
 213 0 l 1
 0 0 l 1
EndSplineSet
Validated: 1
EndChar

StartChar: N
Encoding: 78 78 13
Width: 698
Flags: W
HStem: 0 41<0 66.2947 171.705 238> 591 44.2227<0 81.0879 423 503.391 582.019 661>
VStem: 90 58<52.7678 512> 513 58<143 578.177>
LayerCount: 2
Fore
SplineSet
0 0 m 1
 0 41 l 1
 12 41 l 2
 34 41 52 45 67 52 c 0
 83 60 90 74 90 101 c 2
 90 533 l 2
 90 559 82 575 66 582 c 0
 51 589 33 591 12 591 c 2
 0 591 l 1
 0 635.22265625 l 1
 174 635.22265625 l 1
 513 143 l 1
 513 530 l 2
 513 556 506 573 490 580 c 0
 475 587 456 591 436 591 c 2
 423 591 l 1
 423 635.22265625 l 1
 661 635 l 5
 661 591 l 1
 649 591 l 2
 628 591 609 587 594 579 c 0
 579 572 571 554 571 527 c 2
 571 0 l 1
 504 0 l 1
 148 512 l 1
 148 376 148 101 148 101 c 2
 148 74 156 60 171 52 c 0
 186 45 204 41 226 41 c 2
 238 41 l 1
 238 0 l 1
 0 0 l 1
EndSplineSet
Validated: 1
EndChar

StartChar: O
Encoding: 79 79 14
Width: 711
Flags: W
HStem: 0 47<213.376 418.501> 589 46<213.848 418.594>
VStem: 0 111<180.602 455.83> 520 111<185.454 450.217>
LayerCount: 2
Fore
SplineSet
316 0 m 0
 245 0 186 13 140 40 c 0
 93 66 58 103 34 151 c 0
 11 199 0 255 0 319 c 0
 0 383 11 438 34 486 c 0
 58 533 93 570 140 595 c 0
 187 622 246 635 317 635 c 4
 384 635 441 622 488 595 c 0
 535 570 570 533 594 485 c 0
 619 438 631 382 631 318 c 0
 631 254 619 198 594 150 c 0
 570 103 535 66 488 40 c 0
 441 13 384 0 316 0 c 0
316 47 m 0
 391 47 444 71 474 118 c 0
 505 166 520 233 520 318 c 0
 520 403 505 470 474 517 c 0
 444 565 391 589 317 589 c 0
 242 589 189 565 158 517 c 0
 127 470 111 403 111 318 c 0
 111 233 127 166 158 118 c 0
 189 71 242 47 316 47 c 0
EndSplineSet
Validated: 1
EndChar

StartChar: P
Encoding: 80 80 15
Width: 511
Flags: W
HStem: 0 37<0 62.3416 171.849 263> 262 42<161 304.579> 593 42.2227<0 77.5842 161 309.157>
VStem: 85 76<48.3823 262 304 586.314> 359 96<367.654 543.312>
LayerCount: 2
Fore
SplineSet
0 0 m 1
 0 37 l 1
 12 37 l 2
 32 37 49 41 63 48 c 0
 77 56 85 74 85 101 c 2
 85 537 l 2
 85 563 77 580 62 587 c 0
 48 594 31 598 12 598 c 2
 0 598 l 1
 0 635.22265625 l 1
 236 635.22265625 l 2
 311 635.22265625 366 619 402 585 c 0
 437 552 455 507 455 449 c 0
 455 414 448 396 432 365 c 0
 417 334 392 310 357 291 c 4
 322 272 276 262 217 262 c 2
 161 262 l 1
 161 97 l 2
 161 71 168 54 182 47 c 0
 197 41 214 37 234 37 c 2
 263 37 l 1
 263 0 l 1
 0 0 l 1
161 304 m 1
 208 304 l 2
 262 304 300 316 324 339 c 0
 347 364 359 389 359 446 c 0
 359 496 349 532 328 556 c 0
 307 580 272 593 221 593 c 2
 161 593 l 1
 161 304 l 1
EndSplineSet
Validated: 1
EndChar

StartChar: Q
Encoding: 81 81 16
Width: 640
Flags: W
HStem: -175 45<415.723 511> 589 46.2227<199.422 390.37>
VStem: 0 104<176.821 458.17> 255 103<-65.8834 2.7207> 485 104<181.287 452.371>
LayerCount: 2
Fore
SplineSet
471 -175 m 2
 438 -175 405 -169 374 -157 c 0
 342 -146 316 -126 293 -99 c 0
 271 -71 255 -50 255 0 c 1
 197 6 150 22 112 49 c 0
 75 77 47 114 28 160 c 0
 9 206 0 259 0 318 c 0
 0 382 11 438 32 486 c 0
 54 533 86 570 130 596 c 0
 174 622 230 635.22265625 296 635.22265625 c 0
 358 635.22265625 411 622 455 596 c 0
 499 570 532 533 554 485 c 0
 577 437 589 381 589 317 c 0
 589 261 580 210 562 166 c 0
 544 123 518 86 484 58 c 4
 450 30 408 12 358 3 c 1
 358 -36 369 -45 381 -68 c 0
 394 -91 409 -107 429 -116 c 0
 449 -125 471 -130 496 -130 c 2
 511 -130 l 1
 526 -175 l 1
 471 -175 l 2
295 45 m 0
 365 45 414 69 442 117 c 0
 471 165 485 232 485 317 c 0
 485 403 471 469 442 517 c 0
 414 565 365 589 296 589 c 0
 226 589 176 565 147 517 c 0
 118 469 104 403 104 317 c 0
 104 232 118 165 147 117 c 0
 176 69 226 45 295 45 c 0
EndSplineSet
Validated: 1
EndChar

StartChar: R
Encoding: 82 82 17
Width: 591
Flags: W
HStem: 0 37<0 72.9729 185.22 259> 0 23<513.68 555> 280 42<174 248> 593 42<0 77.5842 174 328.363>
VStem: 85 89<47.6855 280 322 586.314> 373 95<380.352 550.456>
LayerCount: 2
Fore
SplineSet
0 0 m 1xbc
 0 37 l 1
 12 37 l 2xbc
 31 37 48 41 62 47 c 0
 77 54 85 71 85 97 c 2
 85 537 l 2
 85 563 77 580 62 587 c 0
 48 594 31 598 12 598 c 2
 0 598 l 1
 0 635.22265625 l 1
 239 635 l 6
 392 635 468 578 468 464 c 0
 468 432 461 405 448 383 c 0
 435 362 419 345 399 332 c 0
 378 319 358 309 337 302 c 1
 459 94 l 2
 474 71 489 53 504 41 c 0
 518 29 534 23 552 23 c 2
 555 23 l 1
 555 0 l 1
 543 0 l 2x7c
 506 0 477 2 456 5 c 0
 436 9 420 17 407 28 c 0
 394 40 381 58 368 80 c 2
 248 280 l 1
 174 280 l 1
 174 97 l 2
 174 71 181 54 196 47 c 0
 211 41 228 37 247 37 c 2
 259 37 l 1
 259 0 l 1
 0 0 l 1xbc
174 322 m 1
 237 322 l 2
 289 322 324 334 343 357 c 0
 363 380 373 415 373 461 c 0
 373 508 362 542 342 562 c 0
 321 582 285 593 235 593 c 2
 174 593 l 1
 174 322 l 1
EndSplineSet
Validated: 1
EndChar

StartChar: S
Encoding: 83 83 18
Width: 477
Flags: W
HStem: 0 43<124.883 287.726> 599 44<136.817 285.987>
VStem: 11 88<429.511 562.29> 323 59<488 560.852> 335 91<92.2824 217.563>
LayerCount: 2
Fore
SplineSet
382 668 m 1xf0
 382 488 l 1
 323 488 l 1xf0
 323 506 320 524 313 541 c 0
 306 557 295 571 279 583 c 0
 264 594 243 599 216 599 c 0
 179 599 150 590 130 572 c 0
 110 554 99 530 99 499 c 0
 99 476 104 456 113 440 c 0
 122 424 138 410 160 397 c 0
 181 385 211 371 248 357 c 0
 304 336 347 312 379 285 c 0
 410 257 426 221 426 176 c 0
 426 121 404 77 362 46 c 0
 319 15 262 0 190 0 c 0
 128 0 80 11 48 34 c 0
 16 57 0 87 0 124 c 0
 0 141 6 155 18 166 c 0
 30 177 47 182 69 182 c 5
 70 158 75 135 84 114 c 0
 93 93 107 76 125 62 c 0
 144 49 168 43 198 43 c 0
 241 43 274 52 298 71 c 0
 323 90 335 118 335 153 c 0xe8
 335 175 330 193 320 208 c 0
 311 223 296 237 274 250 c 0
 253 263 224 276 186 290 c 0
 127 312 83 338 54 367 c 0
 25 397 11 436 11 484 c 0
 11 518 19 546 37 569 c 0
 56 593 81 611 112 624 c 0
 144 637 180 643 220 643 c 0
 261 643 295 638 323 627 c 1
 367 668 l 1
 382 668 l 1xf0
EndSplineSet
Validated: 1
EndChar

StartChar: T
Encoding: 84 84 19
Width: 568
Flags: W
HStem: 0 38<117 200.482 313.73 397> 598 45<54.0075 212 303 460.142>
VStem: 0 38<485 579.17> 212 91<48.6855 598> 476 34<485 577.718>
LayerCount: 2
Fore
SplineSet
5 643 m 5
 257 643 l 1
 510 643 l 1
 510 485 l 1
 476 485 l 1
 476 569 464 598 402 598 c 2
 303 598 l 1
 303 98 l 2
 303 72 310 55 325 48 c 0
 340 41 357 38 376 38 c 2
 397 38 l 1
 397 0 l 1
 257 0 l 1
 117 0 l 1
 117 38 l 1
 138 38 l 2
 158 38 175 41 189 48 c 0
 204 55 212 72 212 98 c 2
 212 598 l 1
 113 598 l 2
 50 598 38 569 38 485 c 1
 0 485 l 5
 5 643 l 5
EndSplineSet
Validated: 1
EndChar

StartChar: U
Encoding: 85 85 20
Width: 726
Flags: W
HStem: 0 53<255.186 454.093> 606 37<0 78.6562 205.172 284 425 503.5 591.172 669>
VStem: 93 98<110.179 593.177> 517 60<115.147 593.177>
LayerCount: 2
Fore
SplineSet
338 0 m 0
 261 0 201 15 158 46 c 0
 114 77 93 128 93 201 c 2
 93 545 l 2
 93 571 84 588 68 595 c 0
 53 602 34 606 13 606 c 2
 0 606 l 1
 0 643 l 1
 284 643 l 1
 284 606 l 1
 271 606 l 2
 249 606 230 602 214 594 c 0
 199 587 191 570 191 542 c 2
 191 195 l 2
 191 144 206 107 237 85 c 0
 267 64 306 53 354 53 c 0
 410 53 451 66 477 92 c 0
 504 118 517 152 517 192 c 2
 517 545 l 2
 517 571 509 588 493 595 c 0
 477 602 459 606 437 606 c 2
 425 606 l 1
 425 643 l 1
 669 643 l 1
 669 606 l 1
 657 606 l 2
 635 606 616 602 600 594 c 0
 585 587 577 570 577 542 c 2
 577 190 l 2
 577 131 556 84 515 51 c 4
 474 17 415 0 338 0 c 0
EndSplineSet
Validated: 1
EndChar

StartChar: V
Encoding: 86 86 21
Width: 777
Flags: W
HStem: 0 21G<314.67 409.626> 605 38<0 73.3928 214.526 296 448 534.996 642.565 711>
LayerCount: 2
Fore
SplineSet
323 0 m 1
 91 557 l 2
 83 576 74 589 62 595 c 0
 51 602 35 605 14 605 c 2
 0 605 l 1
 0 643 l 1
 296 643 l 1
 296 605 l 1
 272 605 l 2
 228 605 207 591 207 562 c 0
 207 557 208 552 209 547 c 0
 210 541 213 535 215 529 c 2
 334 236 l 2
 345 209 354 184 362 158 c 0
 370 133 377 110 382 88 c 1
 388 110 394 133 402 158 c 0
 410 182 424.198657118 214.338018794 432 236 c 2
 535 522 l 6
 541 543 l 4
 547.511528238 546.255764119 544 556 544 561 c 0
 544 590 521 605 473 605 c 2
 448 605 l 1
 448 643 l 1
 711 643 l 1
 711 605 l 1
 691 605 l 2
 670 605 654 601 642 592 c 0
 632 583 620 564 609 535 c 2
 401.883789062 0 l 1
 323 0 l 1
EndSplineSet
Validated: 1
EndChar

StartChar: W
Encoding: 87 87 22
Width: 929
Flags: W
HStem: 0 21G<223.363 313.238 574.444 662.421> 605 38<0 49.5752 171.026 236 674 743.638 828.471 884>
LayerCount: 2
Fore
SplineSet
229 0 m 1
 72 557 l 2
 66 576 59 589 50 595 c 0
 41 602 28 605 11 605 c 2
 0 605 l 1
 0 643 l 1
 236 643 l 1
 236 605 l 1
 216 605 l 2
 182 605 165 591 165 562 c 0
 165 557 165 552 167 547 c 0
 168 541 170 535 172 529 c 2
 251 240 l 2
 258 213 265 187 271 160 c 0
 278 134 283 110 288 88 c 1
 292 112 297 137 303 165 c 0
 309 193 316 222 323 250 c 2
 425 635.22265625 l 1
 487 637 l 5
 594 247 l 2
 602 217 610 188 616 160 c 0
 622 133 627 109 631 88 c 1
 636 110 641 133 646 157 c 0
 651 181 658 207 666 236 c 2
 741 514 l 2
 743 521 745 530 747 539 c 0
 750 549 751 556 751 561 c 0
 751 590 732 605 694 605 c 2
 674 605 l 1
 674 643 l 1
 884 643 l 1
 884 605 l 1
 868 605 l 2
 851 605 838 601 828 593 c 0
 819 584 810 565 802 535 c 2
 657 0 l 1
 580 0 l 1
 440 504 l 1
 308 0 l 1
 229 0 l 1
EndSplineSet
Validated: 1
EndChar

StartChar: X
Encoding: 88 88 23
Width: 665
Flags: W
HStem: 0 38<0 66.9588 166.215 229.689 361 421.15 560.048 622> 605 38<13 81.3903 227.334 274 387 426.53 534.69 598>
LayerCount: 2
Fore
SplineSet
0 0 m 1
 0 38 l 1
 6 38 l 2
 29 38 47 42 60 51 c 0
 73 61 89 77 106 101 c 2
 267 316 l 1
 108 557 l 2
 97 575 83 587 69 594 c 0
 54 602 39 605 25 605 c 2
 13 605 l 1
 13 643 l 1
 274 643 l 1
 274 605 l 1
 271 605 l 2
 249 605 234 602 227 597 c 0
 220 592 216 586 216 579 c 0
 216 572 217 566 220 559 c 0
 223 553 229 542 239 526 c 2
 326 394 l 1
 418 524 l 2
 425 534 431 544 435 553 c 0
 440 563 442 571 442 579 c 0
 442 590 437 597 427 600 c 0
 417 603 405 605 390 605 c 2
 387 605 l 1
 387 643 l 1
 598 643 l 1
 598 605 l 1
 590 605 l 2
 571 605 555 600 541 591 c 0
 528 582 512 565 494 540 c 2
 354 352 l 1
 532 86 l 2
 546 68 559 56 571 49 c 0
 584 41 597 38 609 38 c 2
 622 38 l 1
 622 0 l 1
 361 0 l 1
 361 38 l 1
 366 38 l 2
 404 38 424 48 424 68 c 0
 424 74 422 81 418 88 c 0
 414 96 405 110 392 130 c 2
 296 273 l 1
 189 125 l 2
 184 117 179 108 173 96 c 0
 167 86 164 75 164 66 c 0
 164 47 185 38 227 38 c 2
 230 38 l 1
 229.689453125 0 l 5
 0 0 l 1
EndSplineSet
Validated: 1
EndChar

StartChar: Y
Encoding: 89 89 24
Width: 606
Flags: W
HStem: 0 38<143 212.342 334.325 414> 605 38<0 53.3894 176.239 240 339 411.989 503.352 552>
VStem: 235 88<48.6855 268>
LayerCount: 2
Fore
SplineSet
143 0 m 1
 143 38 l 1
 163 38 l 2
 182 38 199 41 213 48 c 0
 227 55 235 72 235 98 c 2
 235 268 l 1
 73 557 l 2
 63 575 54 587 46 594 c 0
 38 602 26 605 11 605 c 2
 0 605 l 1
 0 643 l 1
 240 643 l 1
 240 605 l 1
 208 605 l 2
 192 605 181 602 176 596 c 0
 172 591 169 584 169 576 c 0
 169 568 171 560 174 551 c 0
 178 543 181 535 185 529 c 2
 249 408 l 2
 259 389 268 371 275 353 c 0
 282 335 288 319 293 305 c 1
 298 318 306 334 316 352 c 0
 331 380 331 380 345 408 c 2
 401 512 l 2
 407 522 411 531 413 540 c 0
 416 550 417 558 417 566 c 0
 417 592 400 605 365 605 c 2
 339 605 l 1
 339 643 l 1
 552 643 l 1
 552 605 l 1
 542 605 l 2
 529 605 518 600 507 590 c 0
 496 580 484 562 469 535 c 2
 323 268 l 1
 323 103 l 2
 323 74 330 56 344 49 c 0
 358 41 375 38 394 38 c 2
 414 38 l 1
 414.346679688 0 l 5
 143 0 l 1
EndSplineSet
Validated: 1
EndChar

StartChar: Z
Encoding: 90 90 25
Width: 600
Flags: W
HStem: 0 45<124 441.431> 598 45<99.1485 380>
VStem: 24 48<485 524> 468 53<119 158>
LayerCount: 2
Fore
SplineSet
0 0 m 1
 0 36 l 1
 380 598 l 1
 160 598 l 2
 130 598 110 590 98 575 c 0
 87 561 80 544 77 524 c 2
 72 485 l 1
 24 485 l 1
 24 643 l 1
 505 643 l 1
 505 606 l 1
 124 45 l 1
 379 45 l 2
 409 45 430 52 442 67 c 0
 453 82 460 99 463 119 c 2
 468 158 l 1
 521 158 l 5
 516 0 l 5
 0 0 l 1
EndSplineSet
Validated: 1
EndChar

StartChar: one
Encoding: 49 49 26
Width: 282
Flags: W
HStem: -0.0703125 32.6113<41.1855 106.537 171.57 236.924> 456.02 20G<126.314 171.545> 456.02 20G<126.314 171.545>
VStem: 106.564 64.9805<34.9354 388.131> 126.314 45.2305<443.838 475.955>
LayerCount: 2
Fore
SplineSet
171.544921875 476.01953125 m 1xc8
 171.544921875 49.0078125 l 2
 171.544921875 33.359375 206.29296875 32.4736328125 236.88671875 32.47265625 c 1
 236.88671875 32.541015625 l 1
 236.923828125 32.541015625 l 1
 236.923828125 32.47265625 l 1
 236.923828125 -0.0703125 l 1
 139.052734375 -0.0703125 l 1
 139.052734375 0 l 1
 41.224609375 0 l 1
 41.185546875 0 l 1
 41.185546875 32.541015625 l 1
 71.7705078125 32.541015625 106.522460938 33.4228515625 106.564453125 49.05078125 c 2
 106.564453125 388.130859375 l 1xd0
 0 385.41015625 l 1
 0 398.647460938 0.2900390625 409.774414062 0.2900390625 409.774414062 c 1
 0.2900390625 409.774414062 126.314453125 428.046875 126.314453125 475.955078125 c 1
 171.544921875 476.01953125 l 1xc8
EndSplineSet
Validated: 1
EndChar

StartChar: two
Encoding: 50 50 27
Width: 392
Flags: W
HStem: 0 52.5967<61.6582 304.535> 443.127 32.873<113.016 229.078>
VStem: 9.16504 71.6572<354.004 418.75> 257.464 84.1553<296.692 420.048> 327.454 34.9951<101.906 113.74>
LayerCount: 2
Fore
SplineSet
0 0 m 1xe8
 0 47.994140625 l 1
 139.147460938 174.883789062 l 2
 168.587890625 202.05859375 191.91796875 225.508789062 209.137695312 245.232421875 c 0
 226.357421875 265.39453125 238.577148438 284.4609375 245.798828125 302.430664062 c 0
 253.575195312 320.401367188 257.463867188 339.467773438 257.463867188 359.629882812 c 0
 257.463867188 384.61328125 250.520507812 404.775390625 236.633789062 420.116210938 c 0
 222.747070312 435.45703125 201.361328125 443.126953125 172.475585938 443.126953125 c 0
 146.923828125 443.126953125 127.482421875 438.524414062 114.150390625 429.3203125 c 0
 101.374023438 420.116210938 92.4873046875 408.0625 87.48828125 393.16015625 c 0
 83.0439453125 378.2578125 80.822265625 362.259765625 80.822265625 345.166015625 c 1
 60.8251953125 345.166015625 43.8828125 348.014648438 29.99609375 353.712890625 c 0
 16.1083984375 359.848632812 9.1650390625 371.245117188 9.1650390625 387.900390625 c 0
 9.1650390625 413.322265625 22.7744140625 434.361328125 49.9931640625 451.016601562 c 0
 77.767578125 467.671875 118.594726562 476 172.475585938 476 c 0
 224.69140625 476 265.796875 465.918945312 295.791992188 445.756835938 c 0
 326.34375 426.033203125 341.619140625 399.515625 341.619140625 366.204101562 c 0xf0
 341.619140625 335.5234375 329.3984375 305.499023438 304.95703125 276.1328125 c 0
 280.516601562 247.204101562 246.354492188 213.673828125 202.471679688 175.541015625 c 2
 61.658203125 52.5966796875 l 1
 254.130859375 52.5966796875 l 2
 279.127929688 52.5966796875 296.069335938 57.6376953125 304.95703125 67.71875 c 0
 313.844726562 77.7998046875 320.233398438 89.1953125 324.12109375 101.90625 c 2
 327.454101562 113.740234375 l 1
 362.44921875 113.740234375 l 1
 358.283203125 0 l 1
 0 0 l 1xe8
EndSplineSet
Validated: 1
EndChar

StartChar: three
Encoding: 51 51 28
Width: 362
Flags: W
HStem: 0 35.0186<72.5987 197.758> 229.569 33.0732<87.9082 172.944> 443.575 32.4248<95.33 196.565>
VStem: 0 43.9541<58.4584 102.116> 8.37207 60.001<355.666 423.471> 219.77 71.8613<308.725 424.112> 236.514 72.5586<67.8 194.095>
LayerCount: 2
Fore
SplineSet
131.861328125 0 m 0xe2
 79.67578125 0 52.326171875 7.1337890625 31.3955078125 21.400390625 c 0
 10.46484375 36.099609375 0 52.9609375 0 71.9833984375 c 0
 0 84.953125 3.953125 95.11328125 11.8603515625 102.462890625 c 0
 19.767578125 109.8125 30.46484375 113.487304688 43.9541015625 113.487304688 c 1
 43.9541015625 90.57421875 51.62890625 71.767578125 66.9775390625 57.068359375 c 0
 82.326171875 42.3681640625 104.1875 35.0185546875 132.559570312 35.0185546875 c 0
 151.1640625 35.0185546875 168.141601562 38.2607421875 183.490234375 44.74609375 c 0
 199.303710938 51.2314453125 212.094726562 62.0400390625 221.862304688 77.171875 c 0
 231.629882812 92.7353515625 236.513671875 113.487304688 236.513671875 139.427734375 c 0xf2
 236.513671875 166.665039062 225.118164062 188.498046875 202.327148438 204.926757812 c 0
 180.001953125 221.35546875 149.303710938 229.569335938 110.233398438 229.569335938 c 2
 87.908203125 229.569335938 l 1
 87.908203125 262.642578125 l 1
 110.233398438 262.642578125 l 2
 130.69921875 262.642578125 149.071289062 266.75 165.350585938 274.96484375 c 0
 182.094726562 283.178710938 195.350585938 294.8515625 205.118164062 309.983398438 c 0
 214.885742188 325.115234375 219.76953125 342.841796875 219.76953125 363.161132812 c 0
 219.76953125 388.236328125 213.955078125 407.907226562 202.327148438 422.174804688 c 0
 191.1640625 436.44140625 172.094726562 443.575195312 145.1171875 443.575195312 c 0
 123.721679688 443.575195312 107.443359375 439.03515625 96.2802734375 429.956054688 c 0
 85.58203125 420.876953125 78.140625 408.98828125 73.9541015625 394.2890625 c 0
 70.2333984375 379.58984375 68.373046875 363.809570312 68.373046875 346.948242188 c 1
 51.6279296875 346.948242188 37.4423828125 349.758789062 25.814453125 355.37890625 c 0
 14.1865234375 361.431640625 8.3720703125 372.671875 8.3720703125 389.100585938 c 0
 8.3720703125 414.17578125 19.767578125 434.928710938 42.55859375 451.357421875 c 0
 65.814453125 467.786132812 100.000976562 476 145.1171875 476 c 0
 188.838867188 476 224.1875 466.920898438 251.165039062 448.762695312 c 0
 278.142578125 431.037109375 291.630859375 405.74609375 291.630859375 372.888671875 c 0xec
 291.630859375 353.43359375 286.747070312 335.491210938 276.979492188 319.0625 c 0
 267.211914062 303.06640625 253.956054688 289.231445312 237.211914062 277.55859375 c 0
 220.466796875 266.317382812 201.397460938 258.319335938 180.001953125 253.564453125 c 1
 193.025390625 252.266601562 206.978515625 249.45703125 221.862304688 245.133789062 c 0
 236.74609375 241.2421875 250.700195312 234.973632812 263.723632812 226.327148438 c 0
 277.211914062 217.6796875 288.142578125 206.22265625 296.514648438 191.956054688 c 0
 304.88671875 178.12109375 309.072265625 160.395507812 309.072265625 138.779296875 c 0
 309.072265625 112.838867188 303.723632812 90.7900390625 293.026367188 72.6318359375 c 0
 282.328125 54.90625 268.142578125 40.6396484375 250.467773438 29.8310546875 c 0
 232.79296875 19.455078125 213.490234375 11.888671875 192.559570312 7.1337890625 c 0
 172.094726562 2.3779296875 145.723632812 0 131.861328125 0 c 0xe2
EndSplineSet
Validated: 1
EndChar

StartChar: four
Encoding: 52 52 29
Width: 432
Flags: W
HStem: 0 28<136.991 195.973 303.715 352.317> 130.667 37.333<49.8154 213.099 286.59 372.382> 456 20G<200.344 286.59> 456 20G<200.344 286.59>
VStem: 213.099 73.4912<36.2763 130.667 168 428.686>
LayerCount: 2
Fore
SplineSet
136.991210938 0 m 1xe8
 136.991210938 28 l 1
 156.364257812 28 l 2
 172.046875 28 185.422851562 30.6669921875 196.493164062 36 c 0
 207.563476562 41.77734375 213.098632812 55.111328125 213.098632812 76 c 2
 213.098632812 130.666992188 l 1
 0 130.666992188 l 1
 0 158 l 1
 213.790039062 476 l 1
 286.58984375 476 l 1
 286.58984375 168 l 1
 372.381835938 168 l 1
 372.381835938 130.666992188 l 1
 286.58984375 130.666992188 l 1
 286.58984375 76 l 2
 286.58984375 55.111328125 292.124023438 41.77734375 303.194335938 36 c 0
 314.264648438 30.6669921875 327.640625 28 343.323242188 28 c 2
 352.317382812 28 l 1
 352.317382812 0 l 1
 136.991210938 0 l 1xe8
49.8154296875 168 m 1
 213.098632812 168 l 1
 213.098632812 291.333007812 l 1
 213.098632812 334.666992188 l 2
 213.559570312 351.111328125 214.250976562 367.555664062 215.173828125 384 c 0
 216.096679688 400.444335938 217.018554688 415.555664062 217.94140625 429.333007812 c 1
 215.634765625 424.888671875 211.9453125 418.22265625 206.87109375 409.333007812 c 0
 201.797851562 400.444335938 196.032226562 390.666992188 189.57421875 380 c 0
 183.1171875 369.77734375 176.889648438 359.77734375 170.893554688 350 c 0
 164.897460938 340.666992188 159.823242188 332.888671875 155.672851562 326.666992188 c 2
 49.8154296875 168 l 1
EndSplineSet
Validated: 1
EndChar

StartChar: five
Encoding: 53 53 30
Width: 364
Flags: W
HStem: 0 38.79<67.7647 200.719> 252.464 36.1602<62.7005 194.777> 423.403 52.5967<75.9121 245.603>
VStem: 0 45.5469<58.4545 94.3635> 236.412 75.1895<71.6496 218.096> 258.102 30.3643<376.724 396.447>
LayerCount: 2
Fore
SplineSet
136.641601562 0 m 0xf8
 100.974609375 0 73.2607421875 3.505859375 53.5 10.5185546875 c 0
 33.7392578125 17.53125 19.76171875 26.0791015625 11.5673828125 36.16015625 c 0
 3.85546875 46.2412109375 0 56.322265625 0 66.4033203125 c 0
 0 78.67578125 3.615234375 88.0986328125 10.8447265625 94.673828125 c 0
 18.556640625 101.686523438 30.1240234375 105.193359375 45.546875 105.193359375 c 1
 45.546875 86.345703125 52.7763671875 70.56640625 67.236328125 57.8564453125 c 0
 81.6962890625 45.1455078125 103.625976562 38.7900390625 133.02734375 38.7900390625 c 0
 152.788085938 38.7900390625 170.380859375 42.2958984375 185.803710938 49.30859375 c 0
 201.708984375 56.3212890625 214 67.7177734375 222.67578125 83.4970703125 c 0
 231.833007812 99.71484375 236.412109375 121.848632812 236.412109375 149.900390625 c 0xf8
 236.412109375 184.526367188 226.290039062 210.16796875 206.046875 226.823242188 c 0
 186.286132812 243.916992188 159.77734375 252.463867188 126.520507812 252.463867188 c 0
 101.45703125 252.463867188 82.66015625 250.9296875 70.1279296875 247.861328125 c 0
 57.5966796875 244.793945312 46.751953125 241.506835938 37.5947265625 238 c 1
 20.2431640625 242.6015625 l 1
 43.3779296875 476 l 1
 284.8515625 476 l 1
 288.465820312 376.723632812 l 1
 258.1015625 376.723632812 l 1xf4
 255.208984375 396.447265625 l 2
 253.762695312 405.651367188 250.629882812 412.4453125 245.810546875 416.829101562 c 0
 241.47265625 421.211914062 231.591796875 423.403320312 216.168945312 423.403320312 c 2
 75.912109375 423.403320312 l 1
 62.17578125 278.104492188 l 1
 69.4052734375 280.296875 80.0087890625 282.48828125 93.986328125 284.6796875 c 0
 107.963867188 287.309570312 125.555664062 288.624023438 146.763671875 288.624023438 c 0
 177.610351562 288.624023438 205.564453125 283.364257812 230.627929688 272.844726562 c 0
 255.69140625 262.763671875 275.452148438 247.423828125 289.912109375 226.823242188 c 0
 304.372070312 206.22265625 311.6015625 180.58203125 311.6015625 149.900390625 c 0
 311.6015625 120.095703125 304.612304688 93.796875 290.634765625 71.0048828125 c 0
 277.139648438 48.6513671875 257.13671875 31.119140625 230.627929688 18.408203125 c 0
 204.6015625 6.1357421875 173.272460938 0 136.641601562 0 c 0xf8
EndSplineSet
Validated: 1
EndChar

StartChar: six
Encoding: 54 54 31
Width: 390
Flags: W
HStem: 0 35.668<132.103 238.749> 254.861 33.0732<112.572 235.397> 444.872 31.1279<147.621 252.183>
VStem: 0 80.0322<106.224 232.734 254.213 353.768> 270.698 80.0332<71.6697 225.998> 273.837 60.417<386.562 422.132>
LayerCount: 2
Fore
SplineSet
182.03515625 0 m 0xf8
 146.98828125 0 115.864257812 7.998046875 88.6640625 23.9951171875 c 0
 61.462890625 40.423828125 39.7548828125 66.1474609375 23.5390625 101.166992188 c 0
 7.8466796875 136.618164062 0 182.877929688 0 239.9453125 c 0
 0 270.641601562 4.1845703125 300.040039062 12.5537109375 328.141601562 c 0
 20.923828125 356.67578125 33.4775390625 381.967773438 50.216796875 404.016601562 c 0
 66.9560546875 426.498046875 88.140625 444.006835938 113.771484375 456.544921875 c 0
 139.926757812 469.514648438 170.265625 476 204.7890625 476 c 0
 248.206054688 476 280.637695312 469.083007812 302.083984375 455.248046875 c 0
 323.530273438 441.413085938 334.25390625 425.6328125 334.25390625 407.907226562 c 0
 334.25390625 381.966796875 314.115234375 368.997070312 273.836914062 368.997070312 c 1xf4
 273.836914062 390.181640625 268.606445312 408.123046875 258.14453125 422.823242188 c 0
 247.682617188 437.522460938 229.897460938 444.872070312 204.7890625 444.872070312 c 0
 165.557617188 444.872070312 135.741210938 428.659179688 115.340820312 396.234375 c 0
 94.9404296875 364.241210938 83.4326171875 316.901367188 80.8173828125 254.212890625 c 1
 93.89453125 262.859375 109.325195312 270.641601562 127.110351562 277.55859375 c 0
 145.418945312 284.475585938 167.388671875 287.934570312 193.01953125 287.934570312 c 0
 240.62109375 287.934570312 278.806640625 276.045898438 307.576171875 252.267578125 c 0
 336.346679688 228.920898438 350.731445312 196.49609375 350.731445312 154.9921875 c 0
 350.731445312 124.295898438 343.931640625 97.275390625 330.331054688 73.9296875 c 0
 317.25390625 51.015625 298.161132812 32.857421875 273.052734375 19.455078125 c 0
 247.944335938 6.4853515625 217.604492188 0 182.03515625 0 c 0xf8
184.388671875 35.66796875 m 0
 212.112304688 35.66796875 233.297851562 44.53125 247.944335938 62.2568359375 c 0
 263.11328125 80.4140625 270.698242188 109.1640625 270.698242188 148.506835938 c 0xf8
 270.698242188 185.255859375 262.590820312 212.060546875 246.375 228.920898438 c 0
 230.682617188 246.21484375 207.666015625 254.861328125 177.327148438 254.861328125 c 0
 156.926757812 254.861328125 138.095703125 250.75390625 120.833984375 242.540039062 c 0
 104.094726562 234.7578125 90.494140625 226.327148438 80.0322265625 217.248046875 c 1
 80.5556640625 152.397460938 90.2333984375 105.921875 109.064453125 77.8203125 c 0
 127.895507812 49.71875 153.002929688 35.66796875 184.388671875 35.66796875 c 0
EndSplineSet
Validated: 1
EndChar

StartChar: seven
Encoding: 55 55 32
Width: 330
Flags: W
HStem: 0 61.4609<90.6509 110.205> 0 28.5801<28.9902 95.762 163.495 200.795> 422.666 53.334<33.3406 244.666>
VStem: 0 28<355.334 388.666>
LayerCount: 2
Fore
SplineSet
3.33203125 476 m 1xb0
 301.33203125 476 l 1
 301.33203125 456.666015625 l 1
 158.22265625 58.173828125 l 1
 159.193359375 39.2470703125 173.59765625 28.580078125 200.794921875 28.580078125 c 1
 200.794921875 0 l 1
 137.33203125 0 l 1
 87.33203125 0 l 1
 28.990234375 0 l 1
 28.990234375 28.580078125 l 1x70
 84.513671875 29.189453125 104.875 43.486328125 109.69140625 61.4609375 c 1
 110.205078125 61.447265625 l 1
 244.666015625 422.666015625 l 1
 69.33203125 422.666015625 l 2
 45.7763671875 422.666015625 32.888671875 411.333007812 30.666015625 388.666015625 c 2
 28 355.333984375 l 1
 0 355.333984375 l 1
 3.33203125 476 l 1xb0
EndSplineSet
Validated: 1
EndChar

StartChar: eight
Encoding: 56 56 33
Width: 368
Flags: W
HStem: 0 29.8311<103.715 221.513> 445.521 30.4795<110.938 213.898>
VStem: 0 67.7344<56.912 185.065> 16.0605 65.6396<313.489 423.587> 242.308 62.1484<301.689 424.589> 262.559 63.5439<60.0237 167.332>
LayerCount: 2
Fore
SplineSet
158.512695312 0 m 0xc4
 123.59765625 0 94.26953125 5.404296875 70.52734375 16.212890625 c 0
 47.2509765625 27.453125 29.5615234375 42.15234375 17.45703125 60.310546875 c 0
 5.8193359375 78.9013671875 0 99.6533203125 0 122.56640625 c 0xe4
 0 143.318359375 4.6552734375 160.828125 13.9658203125 175.095703125 c 0
 23.2763671875 189.362304688 35.845703125 201.68359375 51.673828125 212.059570312 c 0
 67.501953125 222.435546875 85.6572265625 232.163085938 106.140625 241.2421875 c 1
 79.60546875 255.077148438 57.9580078125 271.505859375 41.19921875 290.528320312 c 0
 24.4404296875 309.55078125 16.060546875 332.680664062 16.060546875 359.91796875 c 0
 16.060546875 379.805664062 21.181640625 398.612304688 31.4228515625 416.337890625 c 0
 41.6650390625 434.063476562 57.7255859375 448.331054688 79.60546875 459.138671875 c 0
 101.950195312 470.379882812 131.045898438 476 166.892578125 476 c 0
 210.651367188 476 244.40234375 465.408203125 268.14453125 444.223632812 c 0
 292.352539062 423.471679688 304.456054688 396.8828125 304.456054688 364.458007812 c 0xd8
 304.456054688 335.923828125 295.84375 313.658203125 278.619140625 297.662109375 c 0
 261.39453125 282.098632812 238.583984375 267.831054688 210.186523438 254.861328125 c 1
 244.635742188 239.729492188 272.567382812 222.219726562 293.981445312 202.33203125 c 0
 315.395507812 182.444335938 326.102539062 158.450195312 326.102539062 130.348632812 c 0
 326.102539062 89.27734375 310.740234375 57.2841796875 280.015625 34.3701171875 c 0
 249.756835938 11.45703125 209.255859375 0 158.512695312 0 c 0xc4
175.969726562 269.776367188 m 1
 202.0390625 281.881835938 219.497070312 295.284179688 228.341796875 309.983398438 c 0
 237.65234375 324.682617188 242.307617188 343.2734375 242.307617188 365.754882812 c 0
 242.307617188 378.724609375 239.747070312 391.262695312 234.626953125 403.368164062 c 0
 229.505859375 415.90625 221.125976562 426.065429688 209.48828125 433.84765625 c 0
 197.849609375 441.629882812 182.25390625 445.520507812 162.702148438 445.520507812 c 0
 136.6328125 445.520507812 116.615234375 438.170898438 102.649414062 423.471679688 c 0
 88.68359375 408.771484375 81.7001953125 390.181640625 81.7001953125 367.700195312 c 0xd8
 81.7001953125 344.354492188 89.6142578125 325.547851562 105.442382812 311.280273438 c 0
 121.270507812 297.013671875 144.779296875 283.178710938 175.969726562 269.776367188 c 1
162.00390625 29.8310546875 m 0
 192.263671875 29.8310546875 216.471679688 37.8291015625 234.626953125 53.8251953125 c 0
 253.248046875 70.25390625 262.55859375 91.0068359375 262.55859375 116.08203125 c 0
 262.55859375 138.130859375 253.248046875 157.369140625 234.626953125 173.797851562 c 0
 216.471679688 190.2265625 184.815429688 207.520507812 139.658203125 225.678710938 c 1
 117.778320312 214.4375 100.321289062 199.954101562 87.287109375 182.228515625 c 0
 74.251953125 164.935546875 67.734375 144.18359375 67.734375 119.97265625 c 0xe4
 67.734375 93.16796875 75.6484375 71.3349609375 91.4765625 54.4736328125 c 0
 107.3046875 38.044921875 130.813476562 29.8310546875 162.00390625 29.8310546875 c 0
EndSplineSet
Validated: 1
EndChar

StartChar: nine
Encoding: 57 57 34
Width: 386
Flags: W
HStem: 0 35.6191<77.5005 205.05> 185.219 38.21<108.858 234.502> 440.381 35.6191<116.271 220.414>
VStem: 0 80.8711<247.901 402.184> 270.092 80.8711<130.711 229.257 248.984 378.187>
LayerCount: 2
Fore
SplineSet
138.186523438 0 m 0
 108.3515625 0 85.05859375 2.806640625 68.30859375 8.4189453125 c 0
 52.08203125 14.03125 40.56640625 20.939453125 33.76171875 29.142578125 c 0
 27.48046875 37.77734375 24.33984375 46.6279296875 24.33984375 55.6953125 c 0
 24.33984375 63.8984375 26.6953125 70.5908203125 31.40625 75.771484375 c 0
 36.640625 81.3837890625 42.13671875 85.0537109375 47.89453125 86.78125 c 1
 55.22265625 73.3974609375 65.953125 61.5244140625 80.0859375 51.162109375 c 0
 94.7412109375 40.7998046875 114.370117188 35.619140625 138.971679688 35.619140625 c 0
 182.416992188 35.619140625 214.346679688 51.59375 234.760742188 83.54296875 c 0
 255.697265625 115.4921875 267.474609375 164.063476562 270.091796875 229.256835938 c 1
 258.577148438 218.03125 243.135742188 207.885742188 223.768554688 198.819335938 c 0
 204.924804688 189.751953125 181.893554688 185.21875 154.674804688 185.21875 c 0
 109.13671875 185.21875 71.97265625 196.228515625 43.18359375 218.247070312 c 0
 14.39453125 240.266601562 0 273.079101562 0 316.685546875 c 0
 0 347.771484375 6.54296875 375.1875 19.62890625 398.93359375 c 0
 33.23828125 423.111328125 52.60546875 441.892578125 77.73046875 455.276367188 c 0
 102.854492188 469.091796875 132.952148438 476 168.022460938 476 c 0
 203.092773438 476 234.499023438 468.444335938 262.240234375 453.333007812 c 0
 289.982421875 438.221679688 311.705078125 414.69140625 327.408203125 382.7421875 c 0
 343.111328125 350.793945312 350.962890625 309.345703125 350.962890625 258.399414062 c 0
 350.962890625 224.291992188 347.037109375 191.6953125 339.185546875 160.609375 c 0
 331.333984375 129.956054688 318.771484375 102.540039062 301.498046875 78.3623046875 c 0
 284.748046875 54.18359375 262.763671875 34.970703125 235.545898438 20.7236328125 c 0
 208.850585938 6.908203125 176.397460938 0 138.186523438 0 c 0
171.948242188 223.428710938 m 0
 197.596679688 223.428710938 218.534179688 228.609375 234.760742188 238.971679688 c 0
 251.509765625 249.765625 263.548828125 262.0703125 270.876953125 275.885742188 c 1
 269.830078125 333.307617188 259.884765625 374.970703125 241.041992188 400.875976562 c 0
 222.721679688 427.212890625 198.381835938 440.380859375 168.022460938 440.380859375 c 0
 140.280273438 440.380859375 118.819335938 430.234375 103.639648438 409.942382812 c 0
 88.4609375 390.08203125 80.87109375 361.155273438 80.87109375 323.162109375 c 0
 80.87109375 287.758789062 88.4609375 262.28515625 103.639648438 246.743164062 c 0
 118.819335938 231.200195312 141.588867188 223.428710938 171.948242188 223.428710938 c 0
EndSplineSet
Validated: 1
EndChar

StartChar: zero
Encoding: 48 48 35
Width: 424
Flags: W
HStem: 0 35.0195<137.624 249.679> 440.981 35.0186<138.03 250.08>
VStem: 0 85.7979<108.544 368.825> 301.116 85.7979<112.65 364.117>
LayerCount: 2
Fore
SplineSet
193.869140625 0 m 0
 148.770507812 0 111.921875 9.943359375 83.322265625 29.8310546875 c 0
 54.7236328125 49.71875 33.548828125 77.6044921875 19.7998046875 113.48828125 c 0
 6.599609375 149.372070312 0 191.307617188 0 239.296875 c 0
 0 287.286132812 6.599609375 329.006835938 19.7998046875 364.458007812 c 0
 33.548828125 399.909179688 54.7236328125 427.362304688 83.322265625 446.817382812 c 0
 111.921875 466.272460938 149.045898438 476 194.694335938 476 c 0
 237.59375 476 273.067382812 466.272460938 301.116210938 446.817382812 c 0
 329.715820312 427.362304688 351.165039062 399.693359375 365.46484375 363.809570312 c 0
 379.764648438 328.357421875 386.9140625 286.637695312 386.9140625 238.6484375 c 0
 386.9140625 190.659179688 379.764648438 148.72265625 365.46484375 112.838867188 c 0
 351.165039062 77.3876953125 329.715820312 49.71875 301.116210938 29.8310546875 c 0
 272.517578125 9.943359375 236.768554688 0 193.869140625 0 c 0
193.869140625 35.01953125 m 0
 234.018554688 35.01953125 261.79296875 52.9609375 277.192382812 88.8447265625 c 0
 293.141601562 124.728515625 301.116210938 174.663085938 301.116210938 238.6484375 c 0
 301.116210938 302.633789062 293.141601562 352.352539062 277.192382812 387.803710938 c 0
 261.79296875 423.255859375 234.29296875 440.981445312 194.694335938 440.981445312 c 0
 154.545898438 440.981445312 126.221679688 423.255859375 109.721679688 387.803710938 c 0
 93.7724609375 352.352539062 85.7978515625 302.633789062 85.7978515625 238.6484375 c 0
 85.7978515625 174.663085938 93.7724609375 124.728515625 109.721679688 88.8447265625 c 0
 125.671875 52.9609375 153.720703125 35.01953125 193.869140625 35.01953125 c 0
EndSplineSet
Validated: 1
EndChar

StartChar: a
Encoding: 97 97 36
Width: 520
Flags: W
HStem: 0 45<117.006 259.684> 0 37<423.473 475> 237 36<157.37 314> 432 44<149.111 285.365>
VStem: 0 98<64.2384 193.888> 42 86<350.38 411.121> 314 95<93.4633 237 273 408.953>
LayerCount: 2
Fore
SplineSet
157 0 m 0xb6
 112 0 74 11 44 34 c 4
 15 57 0 101 0 149 c 0xba
 0 195 19 212 57 234 c 0
 95 256 153 273 230 273 c 1
 314 273 l 1
 314 325 l 2
 314 346 312 364 308 380 c 0
 304 396 295 409 282 418 c 0
 268 428 248 432 220 432 c 0
 195 432 175 428 162 420 c 0
 148 412 139 401 134 386 c 0
 130 372 128 355 128 337 c 1
 100 337 78 341 64 350 c 0
 50 358 42 373 42 392 c 0
 42 412 51 428 67 440 c 0
 84 453 105 462.211914062 132 467.211914062 c 0
 160 473.211914062 191 476 224 476 c 0
 286 476 332 465 363 442 c 0
 394 419 409 380 409 325 c 2
 409 99 l 2
 409 75 414 58 423 50 c 0
 433 41 449 37 472 37 c 2
 475 37 l 1
 475 0 l 1
 339 0 l 1x76
 322 75 l 1
 314 75 l 1
 300 59 289 43 273 31 c 0
 258 19 247 15 227 7 c 0
 208 3 184 0 157 0 c 0xb6
180 45 m 0
 221 45 254 56 278 78 c 0
 302 100 314 129 314 167 c 2
 314 237 l 1
 250 237 l 1
 192 237 153 222 130 204 c 0
 109 187 98 161 98 126 c 0
 98 72 125 45 180 45 c 0
EndSplineSet
Validated: 1
EndChar

StartChar: b
Encoding: 98 98 37
Width: 633
Flags: W
HStem: -0 46<241.99 403.605> 0 36<0 79.0566> 408 54<250.545 403.589> 607 36<0 79.2303>
VStem: 92 97<106.274 349.765 377 595.593> 455 99<107.898 348.426>
LayerCount: 2
Fore
SplineSet
345 -0 m 4xbc
 306 -0 273 -2 248 12 c 4
 223 26 204 44 189 66 c 1
 182 66 l 1
 164 0 l 1
 0 0 l 1
 0 36 l 1
 8 36 l 2x7c
 31 36 51 39 68 46 c 0
 84 53 92 70 92 96 c 2
 92 550 l 2
 92 575 84 590 67 597 c 0
 50 604 31 607 8 607 c 2
 0 607 l 1
 0 643 l 1
 189 643 l 1
 189 487 l 2
 189 477 187 465 187 450 c 0
 187 435 186 422 186 408 c 0
 186 394 185 383 184 377 c 1
 189 377 l 1
 204 403 223 424 248 439 c 0
 273 454 305 462 345 462 c 0
 413 462 464 443 500 405 c 0
 536 368 554 309 554 228 c 0
 554 146 536 86 500 48 c 0
 464 10 413 -0 345 -0 c 4xbc
329 46 m 0xbc
 374 46 406 61 425 92 c 0
 445 124 455 169 455 228 c 0
 455 288 445 333 425 363 c 0
 406 393 374 408 328 408 c 0
 275 408 238 393 218 363 c 0
 198 334 189 288 189 228 c 0
 189 169 198 124 218 92 c 0
 238 61 275 46 329 46 c 0xbc
EndSplineSet
Validated: 33
EndChar

StartChar: c
Encoding: 99 99 38
Width: 531
Flags: W
HStem: 0 56<177.176 377.382> 435 43<168.578 315.766>
VStem: 0 108<126.299 360.477> 343 95<341.003 407.129>
LayerCount: 2
Fore
SplineSet
254 0 m 0
 204 0 160 8 122 24 c 0
 85 40 55 65 32 100 c 0
 11 135 0 180 0 236 c 0
 0 298 11 346 32 381 c 0
 55 416 84 441 121 455 c 0
 158 470 201 478 248 478 c 0
 279 478 310 473.211914062 339 467.211914062 c 0
 369 461.211914062 394 452 413 439 c 0
 432 426 438 410 438 391 c 0
 438 371 433 350 416 341 c 4
 400 333 375 336 343 336 c 5
 343 363 336 386 323 405 c 0
 310 425 285 435 248 435 c 0
 220 435 195 429 174 417 c 0
 153 406 137 386 125 357 c 0
 114 329 108 289 108 237 c 0
 108 176 121 131 147 101 c 0
 174 71 217 56 276 56 c 0
 311 56 341 61 366 72 c 0
 392 84 411 98 424 116 c 1
 437 108 443 97 443 82 c 0
 443 69 436 56 422 44 c 0
 408 31 387 21 358 12 c 0
 331 4 296 0 254 0 c 0
EndSplineSet
Validated: 33
EndChar

StartChar: d
Encoding: 100 100 39
Width: 587
Flags: W
HStem: 0 46<142.539 298.138> 0 36<449.865 526> 408 54<144.424 290.998> 607 36<260 335.135>
VStem: 0 94<102.083 347.937> 347 91<46.9096 76 101.955 347.762 387 596.09>
LayerCount: 2
Fore
SplineSet
198 0 m 0xbc
 134 0 85 10 51 47 c 0
 17 85 0 145 0 226 c 0
 0 308 17 367 51 405 c 0
 85 443 134 462 198 462 c 0
 236 462 266 455 290 441 c 0
 314 427 333 409 347 387 c 1
 353 387 l 1
 351 402 347 417 347 434 c 0
 347 452 347 467 347 481 c 2
 347 550 l 2
 347 575 339 591 323 597 c 0
 307 604 289 607 267 607 c 2
 260 607 l 1
 260 643 l 1
 438 643 l 1
 438 93 l 2
 438 68 446 52 462 46 c 0xbc
 478 39 497 36 518 36 c 2
 526 36 l 1
 526 0 l 1
 362 0 l 1x7c
 351 76 l 1
 347 76 l 1
 333 50 314 30 291 14 c 0
 267 -1 237 0 198 0 c 0xbc
215 46 m 0
 265 46 300 60 319 90 c 0
 338 120 347 165 347 226 c 0
 347 285 338 329 319 360 c 0
 300 392 265 408 214 408 c 0
 171 408 140 392 122 360 c 0
 103 329 94 284 94 225 c 0
 94 165 103 120 122 91 c 0
 140 61 171 46 215 46 c 0
EndSplineSet
Validated: 33
EndChar

StartChar: e
Encoding: 101 101 40
Width: 500
Flags: W
HStem: 0 54<165.551 352.234> 232 46<102 340> 430 46<158.667 296.953>
VStem: 0 100<125.167 232 278 356.054> 340 105<278 375.656>
LayerCount: 2
Fore
SplineSet
240 0 m 0
 165 0 106 21 63 62 c 0
 21 103 0 160 0 235 c 0
 0 314 20 375 59 415 c 0
 99 456 156 476 230 476 c 0
 297 476 349 459 387 425 c 0
 425 390 445 339 445 271 c 2
 445 232 l 1
 100 232 l 1
 100 170 115 124 141 96 c 0
 167 68 205 54 254 54 c 0
 290 54 321 60 345 72 c 0
 371 84 390 98 402 114 c 1
 407 112 412 109 416 104 c 0
 420 98 422 92 422 85 c 0
 422 73 415 61 402 48 c 0
 389 35 369 23 341 14 c 4
 314 5 281 0 240 0 c 0
102 278 m 1
 340 278 l 1
 340 323 332 360 314 388 c 0
 298 416 269 430 228 430 c 0
 190 430 160 417 139 390 c 0
 118 365 102 327 102 278 c 1
EndSplineSet
Validated: 1
EndChar

StartChar: f
Encoding: 102 102 41
Width: 398
Flags: W
HStem: 0 37<0 62.3416 180.759 275> 435 40.8389<4 85 168 294> 645 41<189.464 279.874>
VStem: 85 83<48.3823 435 475.839 616.505>
LayerCount: 2
Fore
SplineSet
0 0 m 1
 0 37 l 1
 12 37 l 2
 32 37 49 41 63 48 c 0
 77 56 85 74 85 102 c 2
 85 435 l 1
 4 435 l 1
 4 475.838867188 l 1
 85 475.838867188 l 1
 85 522 l 2
 85 575 99 615 126 643 c 0
 155 671 194 686 242 686 c 0
 289 686 321 680 339 668 c 0
 358 657 367 642 367 623 c 0
 367 607 360 595 346 586 c 0
 333 578 315 574 294 574 c 1
 294 591 290 608 281 623 c 0
 273 637 258 645 235 645 c 0
 210 645 192 635 183 615 c 0
 173 596 168 567 168 530 c 2
 168 475.838867188 l 1
 294 475.838867188 l 1
 294 435 l 1
 168 435 l 1
 168 102 l 2
 168 74 175 56 190 48 c 0
 204 41 221 37 241 37 c 2
 275 37 l 1
 275 0 l 1
 0 0 l 1
EndSplineSet
Validated: 1
EndChar

StartChar: g
Encoding: 103 103 42
Width: 525
Flags: W
HStem: -200 43<105.765 309.606> 19 79<133.335 335.245> 183 42<166.282 268.904> 453 62<348.699 410.664> 453 44<153.287 268.479>
VStem: 0 75<-128.215 -8.26713> 41 87<253.1 424.036> 64 58<104.594 170.979> 294 86<252.164 422.446> 360 75<-113.638 4.56927>
LayerCount: 2
Fore
SplineSet
191 -200 m 0xf140
 128 -200 80 -188 48 -165 c 0
 16 -143 0 -111 0 -71 c 0xf440
 0 -36 11 -10 34 8 c 0
 57 26 84 38 115 43 c 1
 103 48 91 57 80 69 c 0
 70 81 64 97 64 115 c 0
 64 133 69 149 78 162 c 0
 88 175 103 187 124 199 c 1
 98 209 78 227 64 251 c 0xf1
 49 276 41 303 41 333 c 0
 41 383 56 424 85 453 c 0
 114 483 157 497 214 497 c 0xea
 237 497 257 494 277 488 c 0
 297 482 311 475.211914062 319 467.211914062 c 1
 328 477.211914062 340 487 355 498 c 0
 371 510 388 515 409 515 c 0
 427 515 441 510 449 501 c 0
 458 492 463 480.211914062 463 467.211914062 c 0
 463 455.211914062 459 446 451 436 c 0
 444 427 431 423 414 423 c 1
 414 430 412 436 408 443 c 0
 404 450 396 453 384 453 c 0
 369 453 356 450 344 443 c 1
 355 430 363 415 370 398 c 0
 377 382 380 361 380 335 c 0xf280
 380 292 366 255 339 226 c 0
 312 197 270 183 214 183 c 0
 207 183 199 183 189 183 c 0
 179 183 172 186 166 187 c 1
 154 181 144 174 135 164 c 0
 127 155 122 144 122 131 c 0
 122 121 126 113 133 107 c 0
 140 101 156 98 179 98 c 2
 284 98 l 2
 338 98 377 85 400 61 c 0
 424 36 435 4 435 -34 c 0
 435 -85 415 -125 376 -155 c 0
 336 -185 275 -200 191 -200 c 0xf140
212 225 m 0
 242 225 263 234 275 252 c 0
 288 270 294 298 294 336 c 0
 294 376 287 405 274 424 c 0
 262 443 241 453 211 453 c 0
 181 453 160 443 147 424 c 0
 134 404 128 375 128 335 c 0xea80
 128 297 134 270 147 252 c 0
 161 234 182 225 212 225 c 0
193 -157 m 0
 237 -157 271 -152 295 -142 c 4
 319 -134 336 -121 345 -104 c 0
 355 -88 360 -70 360 -49 c 0
 360 -22 352 -4 336 6 c 0
 320 14 297 19 266 19 c 2
 176 19 l 2
 159 19 142 17 127 13 c 0
 112 8 99 -0 89 -12 c 0
 79 -24 75 -42 75 -65 c 0xe440
 75 -83 78 -99 85 -112 c 0
 91 -126 103 -136 121 -144 c 0
 138 -152 162 -157 193 -157 c 0
EndSplineSet
Validated: 1
EndChar

StartChar: h
Encoding: 104 104 43
Width: 608
Flags: W
HStem: 0 36<0 67.6746 183.658 236 465.612 517> 408 54<210.833 334.041> 607 36<0 68.2703>
VStem: 79 83<45.6797 366.208 385 596.998> 364 83<46.3354 376.801>
LayerCount: 2
Fore
SplineSet
0 0 m 1
 0 36 l 1
 7 36 l 2
 27 36 44 39 58 46 c 0
 72 53 79 70 79 96 c 2
 79 550 l 2
 79 575 72 591 57 597 c 0
 43 604 26 607 7 607 c 2
 0 607 l 1
 0 643 l 1
 162 643 l 1
 162 457 l 2
 162 447 161 436 161 425 c 4
 160 413 160 404 159 396 c 2
 159 385 l 1
 162 385 l 1
 189 436 232 462 292 462 c 0
 342 462 380 449 407 422 c 0
 433 396 447 354 447 296 c 2
 447 96 l 2
 447 70 453 53 465 46 c 0
 478 39 495 36 515 36 c 2
 517 36 l 1
 517 0 l 1
 364 0 l 1
 364 292 l 2
 364 329 357 357 342 377 c 0
 328 398 304 408 268 408 c 0
 232 408 205 395 187 371 c 0
 170 346 162 312 162 271 c 2
 162 92 l 2
 162 67 169 52 183 45 c 0
 197 39 214 36 234 36 c 2
 236 36 l 1
 236 0 l 1
 0 0 l 1
EndSplineSet
Validated: 1
EndChar

StartChar: i
Encoding: 105 105 44
Width: 358
Flags: W
HStem: 0 31<0 76.1995 226.799 301> 393 31<0 87.0781> 476 136<95 195.431>
VStem: 77 137<493.536 593.861> 101 99<41.155 382.77>
LayerCount: 2
Fore
SplineSet
146 612 m 0xf0
 182 612 214 583 214 545 c 0
 214 509 189 476 149 476 c 0
 101 476 77 509 77 545 c 0
 77 586 110 612 146 612 c 0xf0
0 424 m 1
 200 424 l 1
 200 341 l 1
 200 83 l 2xe8
 200 60 209 46 226 39 c 0
 243 33 263 31 288 31 c 2
 301 31 l 1
 301 0 l 1
 0 0 l 1
 0 31 l 1
 14 31 l 2
 38 31 60 33 77 39 c 0xf0
 94 46 101 60 101 83 c 2
 101 341 l 2xe8
 101 363 93 378 76 384 c 4
 59 390 38 393 14 393 c 2
 0 393 l 1
 0 424 l 1
EndSplineSet
Validated: 1
EndChar

StartChar: j
Encoding: 106 106 45
Width: 302
Flags: W
HStem: -200 38<22 83.4597> 387 34<50 97.3892> 501 99<118.425 183.577>
VStem: 107 91<512.378 588.667> 118 75<-127.306 377.666>
LayerCount: 2
Fore
SplineSet
152 501 m 0xf0
 140 501 127 505 118 512 c 0xe8
 109 520 107 532 107 551 c 0xf0
 107 569 109 582 118 589 c 0xe8
 127 596 140 600 152 600 c 0
 165 600 175 596 184 589 c 0
 193 582 198 569 198 551 c 0
 198 532 193 520 184 512 c 0
 175 505 165 501 152 501 c 0xf0
0 -200 m 1
 22 -162 l 1
 28 -162 l 2
 47 -162 63 -158 76 -149 c 0
 90 -140 100 -125 107 -104 c 0xf0
 114 -83 118 -53 118 -15 c 2
 118 333 l 2
 118 356 111 371 98 378 c 0
 85 384 70 387 52 387 c 2
 50 387 l 1
 50 421 l 1
 193 421 l 1
 193 -14 l 2
 193 -62 186 -100 172 -126 c 0
 159 -154 140 -173 116 -183 c 4
 93 -194 66 -200 35 -200 c 2
 0 -200 l 1
EndSplineSet
Validated: 1
EndChar

StartChar: k
Encoding: 107 107 46
Width: 578
Flags: W
HStem: 0 36<0 55.3423 176.658 228 426.344 481> 418 35<263 293.715 398.344 450> 607 36<0 65.6179>
VStem: 76 80<46.3354 168 210 597.325>
LayerCount: 2
Fore
SplineSet
0 0 m 1
 0 36 l 1
 7 36 l 2
 26 36 42 39 56 46 c 0
 69 53 76 70 76 96 c 2
 76 550 l 2
 76 575 69 591 55 597 c 0
 41 604 25 607 7 607 c 2
 0 607 l 1
 0 643 l 1
 156 643 l 1
 156 316 l 2
 156 309 155 299 155 287 c 0
 155 275 154 263 154 251 c 0
 154 239 153 230 152 222 c 2
 152 210 l 1
 258 326 l 2
 276 346 288 362 294 372 c 0
 301 384 305 393 305 401 c 0
 305 408 301 413 294 415 c 0
 288 417 277 418 263 418 c 1
 263 453 l 1
 450 453 l 1
 450 418 l 1
 431 418 412 411 393 397 c 0
 373 383 353 364 331 339 c 2
 272 272 l 1
 384 105 l 2
 399 82 413 65 427 53 c 0
 442 41 459 36 478 36 c 2
 481 36 l 1
 481 0 l 1
 469 0 l 2
 444 0 423 1 407 3 c 4
 391 4 378 8 366 13 c 0
 356 18 345 27 335 37 c 0
 325 49 315 63 303 82 c 2
 218 215 l 1
 156 168 l 1
 156 92 l 2
 156 67 162 52 176 45 c 0
 190 39 206 36 225 36 c 2
 228 36 l 1
 228 0 l 1
 0 0 l 1
EndSplineSet
Validated: 1
EndChar

StartChar: l
Encoding: 108 108 47
Width: 318
Flags: W
HStem: 0 36<0 69.5004 180.658 240> 607 36<0 69.6179>
VStem: 80 80<46.3354 597.325>
LayerCount: 2
Fore
SplineSet
0 0 m 1
 0 36 l 1
 11 36 l 2
 30 36 47 39 60 46 c 0
 74 53 80 70 80 96 c 2
 80 550 l 2
 80 575 73 591 59 597 c 0
 46 604 30 607 11 607 c 2
 0 607 l 1
 0 643 l 1
 160 643 l 1
 160 96 l 2
 160 70 167 53 180 46 c 0
 194 39 210 36 229 36 c 2
 240 36 l 1
 240.279296875 0 l 5
 0 0 l 1
EndSplineSet
Validated: 1
EndChar

StartChar: m
Encoding: 109 109 48
Width: 864
Flags: W
HStem: 0 37<0 70.5511 190.751 246 476.613 530 760.612 814> 428 57<220.482 340.321 500.356 624.084> 439 36.8389<9 71.0312>
VStem: 82 86<47.3354 381.494 404 428.964> 371 86<48.3816 387.703> 655 86<48.3816 395.825>
LayerCount: 2
Fore
SplineSet
0 0 m 1xdc
 0 37 l 1
 12 37 l 2
 33 37 49 41 62 48 c 0
 76 56 82 73 82 101 c 2
 82 378 l 2
 82 404 76 421 62 428 c 0xdc
 49 435 32 439 12 439 c 2
 9 439 l 1
 9 475.838867188 l 1
 153 475.838867188 l 1xbc
 165 404 l 1
 169 404 l 1
 188 437 208 459 231 469 c 0
 254 480 280 485 308 485 c 0
 337 485 363 479 387 466 c 0
 411 454 429 434 440 404 c 1
 448 404 l 1
 466 437 487 459 512 469 c 0
 537 480 563 485 591 485 c 0
 638 485 674 471 700 443 c 0
 727 416 741 372 741 311 c 2
 741 101 l 2
 741 73 747 56 760 48 c 0
 773 41 790 37 811 37 c 2
 814 37 l 1
 814 0 l 1
 655 0 l 1
 655 306 l 2
 655 345 647 375 633 396 c 0
 619 417 594 428 558 428 c 0
 533 428 513 422 498 409 c 0
 483 398 473 382 466 361 c 0
 460 341 457 319 457 296 c 2
 457 101 l 2
 457 73 463 56 476 48 c 0
 489 41 507 37 527 37 c 2
 530 37 l 1
 530 0 l 1
 371 0 l 1
 371 306 l 2
 371 345 363 375 349 396 c 0
 335 417 310 428 275 428 c 0
 248 428 227 421 211 408 c 0
 196 395 185 377 179 355 c 0
 172 333 168 310 168 284 c 2
 168 97 l 2
 168 71 176 54 190 47 c 0
 206 41 223 37 244 37 c 2
 246 37 l 1
 246 0 l 1
 0 0 l 1xdc
EndSplineSet
Validated: 1
EndChar

StartChar: n
Encoding: 110 110 49
Width: 672
Flags: W
HStem: 0 37<0 78.4828 203.027 279 548.66 610> 428 57<250.654 392.505> 439 36.8389<5 79.0781>
VStem: 93 98<49.6545 377.123 404 426.571> 430 97<48.3816 389.75>
LayerCount: 2
Fore
SplineSet
0 0 m 1xd8
 0 37 l 1
 8 37 l 2
 32 37 52 41 68 48 c 0
 85 56 93 73 93 101 c 2
 93 378 l 2
 93 404 85 421 68 428 c 0xd8
 52 435 33 439 10 439 c 2
 5 439 l 1
 5 475.838867188 l 1
 173 475.838867188 l 1xb8
 186 404 l 1
 192 404 l 1
 213 437 237 459 263 469 c 0
 290 480 320 485 353 485 c 0
 408 485 450 471 481 443 c 0
 512 416 527 372 527 311 c 2
 527 101 l 2
 527 73 534 56 548 48 c 0
 562 41 581 37 605 37 c 2
 610 37 l 1
 610 0 l 1
 430 0 l 1
 430 306 l 2
 430 345 421 375 404 396 c 0
 387 417 358 428 316 428 c 0
 285 428 260 421 241 408 c 0
 223 395 210 377 202 355 c 0
 194 333 191 310 191 284 c 2
 191 97 l 2
 191 71 199 54 214 47 c 0
 231 41 251 37 273 37 c 2
 279 37 l 1
 279 0 l 1
 0 0 l 1xd8
EndSplineSet
Validated: 1
EndChar

StartChar: o
Encoding: 111 111 50
Width: 490
Flags: W
HStem: 0 35<142.32 297.314> 441 35<142.686 297.351>
VStem: 0 70<118.285 358.493> 370 70<117.507 357.858>
LayerCount: 2
Fore
SplineSet
220 476 m 0
 269 476 310 466 343 446 c 0
 375 426 400 398 416 363 c 0
 432 327 440 285 440 237 c 0
 440 189 432 147 416 112 c 0
 400 77 375 49 343 30 c 0
 310 10 269 0 220 0 c 0
 170 -0 129 10 97 30 c 0
 64 50 40 77 24 113 c 0
 8 149 0 191 0 239 c 0
 0 287 8 329 24 364 c 0
 40 399 64 427 97 446 c 0
 130 466 171 476 220 476 c 0
220 441 m 1
 168 441 124 423 102 387 c 0
 80 352 70 302 70 238 c 0
 70 174 80 125 102 89 c 0
 124 53 168 35 220 35 c 0
 272 35 316 53 338 89 c 0
 359 124 370 174 370 238 c 0
 370 302 359.383789062 351.422851562 338.010742188 387.2578125 c 4
 316.172851562 423.092773438 272 441 220 441 c 1
EndSplineSet
Validated: 1
EndChar

StartChar: p
Encoding: 112 112 51
Width: 576
Flags: W
HStem: -200 33<5 77.9219 192.077 262> 0 50<231.682 382.058> 384 50<235.341 383.786> 393 33<0 75.7598>
VStem: 91 90<-156.411 -19 -18.9833 69 102.981 333.604> 429 93<104.66 331.485>
LayerCount: 2
Fore
SplineSet
5 -200 m 1xec
 5 -167 l 1
 13 -167 l 2
 34 -167 53 -164 68 -157 c 0
 83 -151 91 -136 91 -111 c 2
 91 340 l 2
 91 340 83 378 67 384 c 0xec
 52 390 34 393 13 393 c 2
 0 393 l 1
 0 426 l 1
 167 426 l 1xdc
 177 356 l 1
 181 356 l 1
 195 380 213 399 236 413 c 0
 259 427 289 434 327 434 c 0
 390 434 438 418 471 384 c 0
 505 349 522 293 522 218 c 0
 522 142 505 87 471 53 c 0
 438 18 390 0 327 0 c 0
 290 0 260 7 236 19 c 0
 213 32 195 49 181 69 c 1
 177 69 l 1
 177 54 180 38 180 21 c 0
 180 4 181 -19 181 -19 c 2
 181 -115 l 2
 181 -138 188 -152 204 -158 c 0
 220 -164 238 -167 259 -167 c 2
 262 -167 l 1
 262 -200 l 1
 5 -200 l 1xec
312 50 m 0
 354 50 384 64 401 93 c 0
 420 122 429 164 429 219 c 0
 429 274 420 315 401 343 c 0
 384 370 353 384 311 384 c 0
 261 384 227 370 208 343 c 0
 190 316 181 274 181 218 c 0
 181 164 190 122 208 93 c 0
 227 64 261 50 312 50 c 0
EndSplineSet
EndChar

StartChar: q
Encoding: 113 113 52
Width: 582
Flags: W
HStem: -200 33<260 317.249 443.656 517> 0 50<139.768 289.975> 384 51<137.943 285.997> 393 33<446.24 521>
VStem: 0 93<102.719 333.418> 341 90<-156.411 68.2961 104.482 332.174>
LayerCount: 2
Fore
SplineSet
517 -200 m 1xec
 260 -200 l 1
 260 -167 l 1
 263 -167 l 2
 284 -167 302 -164 318 -158 c 0
 333 -152 341 -138 341 -115 c 2
 341 -19 l 2
 341 -19 341 4 341 21 c 0
 341 38 343 54 345 69 c 1
 341 69 l 1
 327 49 308 32 286 19 c 0
 262 7 232 0 195 0 c 0
 132 0 84 18 51 53 c 0
 17 87 0 142 0 218 c 0
 0 293 17 349 51 384 c 0
 84 418 132 435 195 435 c 0xec
 232 435 263 427 286 413 c 0
 308 399 327 380 341 356 c 1
 345 356 l 1
 354 426 l 1
 521 426 l 1
 521 393 l 1
 509 393 l 2xdc
 488 393 470 390 455 384 c 0
 439 378 431 340 431 340 c 2
 431 -111 l 2
 431 -136 438 -151 454 -157 c 0
 469 -164 487 -167 509 -167 c 2
 517 -167 l 1
 517 -200 l 1xec
210 50 m 0
 260 50 295 64 313 93 c 0
 332 122 341 164 341 218 c 0
 341 274 332 316 313 343 c 0
 295 370 261 384 211 384 c 0
 168 384 138 370 120 343 c 0
 102 315 93 274 93 219 c 0
 93 164 102 122 120 93 c 0
 138 64 168 50 210 50 c 0
EndSplineSet
EndChar

StartChar: r
Encoding: 114 114 53
Width: 421
Flags: W
HStem: 0 37<0 53.3416 169.849 257> 426 59<206.174 283.058> 439 36.8389<0 61.1588>
VStem: 75 84<48.3816 365.257>
LayerCount: 2
Fore
SplineSet
0 0 m 1xd0
 0 37 l 1
 3 37 l 2
 23 37 40 41 54 48 c 0
 68 56 75 73 75 101 c 2
 75 378 l 2
 75 404 68 419 53 426 c 0xd0
 39 433 22 439 3 439 c 2
 0 439 l 1
 0 475.838867188 l 1
 137 475.838867188 l 1xb0
 154 388 l 1
 158 388 l 1
 166 406 174 422 183 436 c 0
 192 451 204 463 218 472 c 0
 233 480 254 485 280 485 c 0
 312 485 336 479 352 468 c 0
 368 457 376 441 376 420 c 0
 376 402 369 387 356 375 c 0
 344 363 323 357 293 357 c 1
 293 381 290 399 282 409 c 0
 275 421 263 426 246 426 c 0
 229 426 216 420 204 407 c 0
 193 394 184 377 178 357 c 0
 171 337 166 316 163 294 c 0
 160 273 159 253 159 236 c 2
 159 97 l 2
 159 71 166 54 180 47 c 0
 195 41 212 37 232 37 c 2
 257 37 l 1
 257 0 l 1
 0 0 l 1xd0
EndSplineSet
Validated: 1
EndChar

StartChar: s
Encoding: 115 115 54
Width: 382
Flags: W
HStem: 0 41<83.5702 213.537> 437 39<95.2668 209.018>
VStem: 0 54<71.1989 140.359> 6 69<318.707 417.499> 231 61<359.471 412.245> 241 69<66.0804 168>
LayerCount: 2
Fore
SplineSet
142 0 m 0xd4
 99 0 64 8 39 23 c 0
 13 39 0 61 0 91 c 0
 0 106 3 118 9 127 c 0
 15 136 22 142 31 145 c 0
 39 148 47 150 54 150 c 1
 54 120 61 94 74 73 c 0
 87 52 112 41 147 41 c 0
 177 41 200 48 216 63 c 0
 233 77 241 96 241 119 c 0xe4
 241 134 238 145 232 154 c 4
 226 164 215 172 200 181 c 0
 185 190 164 201 136 213 c 0
 106 225 82 238 63 250 c 0
 44 263 29 277 20 293 c 0
 11 309 6 330 6 355 c 0
 6 394 21 424 50 444 c 0
 79 465 119 476 167 476 c 0
 208 476 240 468 261 452 c 0
 282 437 292 418 292 397 c 0
 292 382 287 369 276 359 c 0
 265 350 250 346 231 346 c 1xd8
 231 374 225 397 213 413 c 0
 201 429 182 437 157 437 c 0
 128 437 107 430 94 417 c 0
 82 404 75 388 75 368 c 0
 75 346 83 329 99 317 c 0
 116 306 144 292 182 277 c 0
 212 264 237 252 256 239 c 0
 274 227 288 212 297 196 c 0
 306 179 310 159 310 135 c 0
 310 90 295 56 263 33 c 0
 232 11 192 0 142 0 c 0xd4
EndSplineSet
Validated: 1
EndChar

StartChar: t
Encoding: 116 116 55
Width: 342
Flags: W
HStem: 0 46<166.786 269.668> 426 50<148 262> 426 35<0 62.2428>
VStem: 66 82<67.6621 426> 93 55<488.296 583>
LayerCount: 2
Fore
SplineSet
193 0 m 0xd0
 156 0 116 10 96 30 c 0
 76 50 66 85 66 135 c 2
 66 426 l 1
 0 426 l 1
 0 461 l 1xb0
 10 461 17 462 34 462 c 0
 53 462 93 507 93 527 c 0
 93 544 93 560 93 583 c 1
 148 583 l 1
 148 476 l 1xc8
 262 476 l 1
 262 426 l 1
 148 426 l 1
 148 133 l 2
 148 103 154 81 166 67 c 0
 178 53 194 46 214 46 c 0
 225 46 235 47 243 48 c 0
 252 49 261 51 270 52 c 1
 270 14 l 1
 263 10 251.3671875 7.2646484375 236.256835938 4.3583984375 c 4
 221.145507812 1.453125 214 0 193 0 c 0xd0
EndSplineSet
Validated: 1
EndChar

StartChar: u
Encoding: 117 117 56
Width: 647
Flags: W
HStem: -9 57<210.331 352.936> 0 37<515.398 588> 439 36.8389<0 71.0781 324 394.352>
VStem: 85 94<80.011 426.571> 409 94<100.242 425.943>
LayerCount: 2
Fore
SplineSet
250 -9 m 0xb8
 197 -9 156 5 128 32 c 0
 99 60 85 104 85 165 c 2
 85 378 l 2
 85 404 77 421 60 428 c 0
 44 435 25 439 3 439 c 2
 0 439 l 1
 0 475.838867188 l 1
 179 475.838867188 l 1
 179 170 l 2
 179 131 186 101 201 80 c 0
 215 59 243 48 283 48 c 0xb8
 327 48 359 61 379 87 c 0
 399 114 409 149 409 192 c 2
 409 375 l 2
 409 402 401 420 385 427 c 0
 369 435 350 439 327 439 c 2
 324 439 l 1
 324 475.838867188 l 1
 503 475.838867188 l 1
 503 97 l 2
 503 71 511 54 527 47 c 0
 544 41 563 37 585 37 c 2
 588 37 l 1
 588 0 l 1
 429 0 l 1x78
 416 72 l 1
 411 72 l 1
 391 39 367 17 339 6 c 0
 312 -4 282 -9 250 -9 c 0xb8
EndSplineSet
Validated: 1
EndChar

StartChar: v
Encoding: 118 118 57
Width: 610
Flags: W
HStem: 0 21G<230.671 305.841> 448 28<0 45.6221 158.672 219 344 408.072 487.424 538>
LayerCount: 2
Fore
SplineSet
239 0 m 1
 67 413 l 2
 62 426 55 436 46 441 c 0
 38 445 26 448 10 448 c 2
 0 448 l 1
 0 476 l 1
 219 476 l 1
 219 448 l 1
 201 448 l 2
 169 448 153 437 153 416 c 0
 153 412 154 409 155 405 c 0
 156 401 157 396 160 391 c 2
 247 175 l 2
 255 155 262 136 268 117 c 0
 274 99 279 81 283 65 c 1
 287 81 292 98 297 117 c 0
 303 135 311 154 320 175 c 2
 408 387 l 2
 410 392 411 397 412 402 c 0
 414 407 415 412 415 415 c 0
 415 437 397 448 362 448 c 2
 344 448 l 1
 344 476 l 1
 538 476 l 1
 538 448 l 1
 523 448 l 2
 508 448 496 445 487 438 c 0
 479 432 471 418 463 396 c 2
 297.481445312 0 l 5
 239 0 l 1
EndSplineSet
Validated: 1
EndChar

StartChar: w
Encoding: 119 119 58
Width: 708
Flags: W
HStem: 0 21G<164.334 233.51 423.477 491.455> 448 28<0 36.6704 126.568 175 499 550.576 613.33 654>
LayerCount: 2
Fore
SplineSet
170 0 m 1
 53 413 l 2
 49 426 44 436 37 441 c 0
 30 446 21 448 8 448 c 2
 0 448 l 1
 0 476 l 1
 175 476 l 1
 175 448 l 1
 160 448 l 2
 135 448 122 437 122 416 c 0
 122 412 123 409 123 405 c 0
 125 401 126 396 127 391 c 2
 186 178 l 2
 191 158 196 138 201 119 c 0
 206 99 210 81 213 65 c 1
 216 83 220 102 224 122 c 0
 229 143 234 164 239 185 c 2
 315 471 l 1
 361 471 l 1
 440 183 l 2
 446 160 451 139 456 119 c 0
 461 98 464 80 467 65 c 1
 471 81 474 98 478 116 c 0
 482 134 487 153 493 175 c 2
 549 381 l 2
 550 386 551 392 553 399 c 0
 555 406 556 412 556 415 c 0
 556 437 542 448 514 448 c 2
 499 448 l 1
 499 476 l 1
 654 476 l 1
 654 448 l 1
 642 448 l 2
 630 448 620 445 613 439 c 0
 606 432 600 418 594 396 c 2
 486 0 l 1
 429 0 l 1
 326 373 l 1
 228.26953125 0 l 5
 170 0 l 1
EndSplineSet
Validated: 1
EndChar

StartChar: x
Encoding: 120 120 59
Width: 558
Flags: W
HStem: 0 28<0 48.8302 122.681 170 267 312.16 414.3 460> 448 28<9 60.7876 168.239 203 286 326.354 396.665 443>
LayerCount: 2
Fore
SplineSet
0 0 m 1
 0 28 l 1
 4 28 l 2
 21 28 35 31 44 38 c 0
 54 45 66 57 79 75 c 2
 198 234 l 1
 80 413 l 2
 71 426 62 435 51 440 c 0
 40 445 29 448 19 448 c 2
 9 448 l 1
 9 476 l 1
 203 476 l 1
 203 448 l 1
 201 448 l 2
 184 448 173 446 168 442 c 0
 163 438 160 434 160 429 c 0
 160 424 161 419 163 414 c 0
 165 409 170 401 177 389 c 2
 241 292 l 1
 309 388 l 2
 315 396 319 403 322 409 c 0
 326 416 327 423 327 429 c 0
 327 437 323 442 316 444 c 0
 309 447 300 448 289 448 c 2
 286 448 l 1
 286 476 l 1
 443 476 l 1
 443 448 l 1
 437 448 l 2
 423 448 411 444 401 437 c 0
 391 431 379 418 366 400 c 2
 262 261 l 1
 394 63 l 2
 404 50 414 41 423 36 c 0
 432 31 442 28 451 28 c 2
 460 28 l 1
 460 0 l 1
 267 0 l 1
 267 28 l 1
 271 28 l 2
 299 28 314 35 314 50 c 0
 314 55 312 60 309 65 c 0
 306 71 300 81 290 96 c 2
 219 202 l 1
 140 93 l 2
 136 87 132 80 128 71 c 0
 124 63 121 56 121 49 c 0
 121 35 137 28 168 28 c 2
 170 28 l 1
 170.034179688 0 l 5
 0 0 l 1
EndSplineSet
Validated: 1
EndChar

StartChar: y
Encoding: 121 121 60
Width: 574
Flags: W
HStem: -200 41<30 121.734> 445 36<0 39.6221 162.633 211 310 363.344 448.582 493>
LayerCount: 2
Fore
SplineSet
30 -200 m 1
 30 -159 l 1
 70 -159 102 -151 127 -136 c 0
 153 -121 174 -100 189 -74 c 0
 205 -48 218 -33 228 0 c 1
 65 398 l 2
 57 416 49 428 40 435 c 0
 32 441 20 445 3 445 c 2
 0 445 l 1
 0 481 l 1
 211 481 l 1
 211 445 l 1
 208 445 l 2
 173 445 156 430 156 402 c 0
 156 392 158 382 163 370 c 2
 227 213 l 2
 233 200 238 185 243 169 c 0
 249 153 255 137 259 122 c 0
 264 107 267 95 269 86 c 1
 273 102 278 120 285 138 c 0
 292 157 298 175 304 192 c 2
 363 364 l 2
 368 378 371 390 371 402 c 0
 371 430 351 445 313 445 c 2
 310 445 l 1
 310 481 l 1
 493 481 l 1
 493 445 l 1
 490 445 l 2
 473 445 460 440 452 431 c 0
 443 423 433 404 424 376 c 2
 290 7 l 2
 275 -36 260 -71 246 -98 c 0
 232 -125 216 -145 199 -160 c 0
 182 -175 160 -186 134 -192 c 0
 109 -197 76.4462890625 -200.399414062 37.783203125 -200.399414062 c 6
 30 -200 l 1
EndSplineSet
Validated: 1
EndChar

StartChar: z
Encoding: 122 122 61
Width: 456
Flags: W
HStem: 0 33<92 326.619> 443 33<73.3809 281>
VStem: 18 35<359 388> 347 39<88 117>
LayerCount: 2
Fore
SplineSet
0 0 m 1
 0 27 l 1
 281 443 l 1
 119 443 l 2
 97 443 81 437 73 426 c 0
 64 415 59 403 57 388 c 2
 53 359 l 1
 18 359 l 1
 18 476 l 1
 374 476 l 1
 374 449 l 1
 92 33 l 1
 281 33 l 2
 303 33 319 39 327 49 c 0
 336 60 341 73 343 88 c 2
 347 117 l 1
 386 117 l 5
 382 0 l 5
 0 0 l 1
EndSplineSet
Validated: 1
EndChar
